<svg xmlns="http://www.w3.org/2000/svg" xmlns:xlink="http://www.w3.org/1999/xlink" contentStyleType="text/css" data-diagram-type="ACTIVITY" height="537px" preserveAspectRatio="none" style="width:540px;height:537px;" version="1.1" viewBox="0 0 540 537" width="540px" zoomAndPan="magnify"><?plantuml 1.2026.5?><defs/><g><ellipse cx="223.6768" cy="25" fill="#222222" rx="10" ry="10" style="stroke:#222222;stroke-width:1;"/><polygon fill="#F7F9FC" points="188.668,55,258.6855,55,270.6855,67,258.6855,79,188.668,79,176.668,67,188.668,55" style="stroke:#2F3A4A;stroke-width:0.5;stroke-linejoin:miter;stroke-miterlimit:10;"/><text fill="#111827" font-family="'sans-serif'" font-size="11" lengthAdjust="spacing" textLength="70.0176" x="188.668" y="71.1572">Trigger type?</text><text fill="#000000" font-family="'sans-serif'" font-size="11" lengthAdjust="spacing" textLength="46.7124" x="129.9556" y="64.6797">tag push</text><text fill="#000000" font-family="'sans-serif'" font-size="11" lengthAdjust="spacing" textLength="104.7256" x="270.6855" y="64.6797">schedule or manual</text><rect fill="#F7F9FC" height="34.1328" rx="12.5" ry="12.5" style="stroke:#2F3A4A;stroke-width:0.5;" width="125.9023" x="16" y="89"/><text fill="#111827" font-family="'sans-serif'" font-size="12" lengthAdjust="spacing" textLength="105.9023" x="26" y="110.6016">Use pushed v* tag</text><rect fill="#F7F9FC" height="34.1328" rx="12.5" ry="12.5" style="stroke:#2F3A4A;stroke-width:0.5;" width="190.8359" x="272.9844" y="89"/><text fill="#111827" font-family="'sans-serif'" font-size="12" lengthAdjust="spacing" textLength="170.8359" x="282.9844" y="110.6016">Fetch full git history and tags</text><polygon fill="#F7F9FC" points="282.8516,143.1328,453.9531,143.1328,465.9531,155.1328,453.9531,167.1328,282.8516,167.1328,270.8516,155.1328,282.8516,143.1328" style="stroke:#2F3A4A;stroke-width:0.5;stroke-linejoin:miter;stroke-miterlimit:10;"/><text fill="#111827" font-family="'sans-serif'" font-size="11" lengthAdjust="spacing" textLength="171.1016" x="282.8516" y="159.29">New commits, force, or version?</text><text fill="#000000" font-family="'sans-serif'" font-size="11" lengthAdjust="spacing" textLength="17.4829" x="253.3687" y="152.8125">yes</text><text fill="#000000" font-family="'sans-serif'" font-size="11" lengthAdjust="spacing" textLength="13.5835" x="465.9531" y="152.8125">no</text><rect fill="#F7F9FC" height="34.1328" rx="12.5" ry="12.5" style="stroke:#2F3A4A;stroke-width:0.5;" width="177.8984" x="171.9023" y="177.1328"/><text fill="#111827" font-family="'sans-serif'" font-size="12" lengthAdjust="spacing" textLength="157.8984" x="181.9023" y="198.7344">Compute or validate vX.Y.Z</text><rect fill="#F7F9FC" height="34.1328" rx="12.5" ry="12.5" style="stroke:#2F3A4A;stroke-width:0.5;" width="162.2715" x="179.7158" y="231.2656"/><text fill="#111827" font-family="'sans-serif'" font-size="12" lengthAdjust="spacing" textLength="142.2715" x="189.7158" y="252.8672">Create local tag at HEAD</text><rect fill="#F7F9FC" height="34.1328" rx="12.5" ry="12.5" style="stroke:#2F3A4A;stroke-width:0.5;" width="89.4746" x="431.2158" y="177.1328"/><text fill="#111827" font-family="'sans-serif'" font-size="12" lengthAdjust="spacing" textLength="69.4746" x="441.2158" y="198.7344">Skip release</text><ellipse cx="475.9531" cy="242.2656" fill="none" rx="11" ry="11" style="stroke:#222222;stroke-width:1;"/><ellipse cx="475.9531" cy="242.2656" fill="#222222" rx="6" ry="6" style="stroke:#222222;stroke-width:1;"/><polygon fill="#F7F9FC" points="223.6768,275.3984,235.6768,287.3984,223.6768,299.3984,211.6768,287.3984,223.6768,275.3984" style="stroke:#2F3A4A;stroke-width:0.5;stroke-linejoin:miter;stroke-miterlimit:10;"/><rect fill="#F7F9FC" height="34.1328" rx="12.5" ry="12.5" style="stroke:#2F3A4A;stroke-width:0.5;" width="164.0469" x="141.6533" y="319.3984"/><text fill="#111827" font-family="'sans-serif'" font-size="12" lengthAdjust="spacing" textLength="144.0469" x="151.6533" y="341">Run go test -race -v ./...</text><rect fill="#F7F9FC" height="34.1328" rx="12.5" ry="12.5" style="stroke:#2F3A4A;stroke-width:0.5;" width="142.5371" x="152.4082" y="373.5313"/><text fill="#111827" font-family="'sans-serif'" font-size="12" lengthAdjust="spacing" textLength="122.5371" x="162.4082" y="395.1328">Run GoReleaser once</text><rect fill="#F7F9FC" height="48.2656" rx="12.5" ry="12.5" style="stroke:#2F3A4A;stroke-width:0.5;" width="229.0508" x="109.1514" y="427.6641"/><text fill="#111827" font-family="'sans-serif'" font-size="12" lengthAdjust="spacing" textLength="181.5762" x="119.1514" y="449.2656">Publish GitHub Release, assets,</text><text fill="#111827" font-family="'sans-serif'" font-size="12" lengthAdjust="spacing" textLength="209.0508" x="119.1514" y="463.3984">checksums, and Homebrew formula</text><ellipse cx="223.6768" cy="506.9297" fill="none" rx="11" ry="11" style="stroke:#222222;stroke-width:1;"/><ellipse cx="223.6768" cy="506.9297" fill="#222222" rx="6" ry="6" style="stroke:#222222;stroke-width:1;"/><line style="stroke:#2F3A4A;stroke-width:1;" x1="260.8516" x2="260.8516" y1="211.2656" y2="231.2656"/><polygon fill="#2F3A4A" points="256.8516,221.2656,260.8516,231.2656,264.8516,221.2656,260.8516,225.2656" style="stroke:#2F3A4A;stroke-width:1;stroke-linejoin:miter;stroke-miterlimit:10;"/><line style="stroke:#2F3A4A;stroke-width:1;" x1="475.9531" x2="475.9531" y1="211.2656" y2="231.2656"/><polygon fill="#2F3A4A" points="471.9531,221.2656,475.9531,231.2656,479.9531,221.2656,475.9531,225.2656" style="stroke:#2F3A4A;stroke-width:1;stroke-linejoin:miter;stroke-miterlimit:10;"/><line style="stroke:#2F3A4A;stroke-width:1;" x1="270.8516" x2="260.8516" y1="155.1328" y2="155.1328"/><line style="stroke:#2F3A4A;stroke-width:1;" x1="260.8516" x2="260.8516" y1="155.1328" y2="177.1328"/><polygon fill="#2F3A4A" points="256.8516,167.1328,260.8516,177.1328,264.8516,167.1328,260.8516,171.1328" style="stroke:#2F3A4A;stroke-width:1;stroke-linejoin:miter;stroke-miterlimit:10;"/><line style="stroke:#2F3A4A;stroke-width:1;" x1="465.9531" x2="475.9531" y1="155.1328" y2="155.1328"/><line style="stroke:#2F3A4A;stroke-width:1;" x1="475.9531" x2="475.9531" y1="155.1328" y2="177.1328"/><polygon fill="#2F3A4A" points="471.9531,167.1328,475.9531,177.1328,479.9531,167.1328,475.9531,171.1328" style="stroke:#2F3A4A;stroke-width:1;stroke-linejoin:miter;stroke-miterlimit:10;"/><line style="stroke:#2F3A4A;stroke-width:1;" x1="260.8516" x2="260.8516" y1="265.3984" y2="287.3984"/><line style="stroke:#2F3A4A;stroke-width:1;" x1="260.8516" x2="235.6768" y1="287.3984" y2="287.3984"/><polygon fill="#2F3A4A" points="245.6768,283.3984,235.6768,287.3984,245.6768,291.3984,241.6768,287.3984" style="stroke:#2F3A4A;stroke-width:1;stroke-linejoin:miter;stroke-miterlimit:10;"/><line style="stroke:#2F3A4A;stroke-width:1;" x1="368.4023" x2="368.4023" y1="123.1328" y2="143.1328"/><polygon fill="#2F3A4A" points="364.4023,133.1328,368.4023,143.1328,372.4023,133.1328,368.4023,137.1328" style="stroke:#2F3A4A;stroke-width:1;stroke-linejoin:miter;stroke-miterlimit:10;"/><line style="stroke:#2F3A4A;stroke-width:1;" x1="176.668" x2="78.9512" y1="67" y2="67"/><line style="stroke:#2F3A4A;stroke-width:1;" x1="78.9512" x2="78.9512" y1="67" y2="89"/><polygon fill="#2F3A4A" points="74.9512,79,78.9512,89,82.9512,79,78.9512,83" style="stroke:#2F3A4A;stroke-width:1;stroke-linejoin:miter;stroke-miterlimit:10;"/><line style="stroke:#2F3A4A;stroke-width:1;" x1="270.6855" x2="368.4023" y1="67" y2="67"/><line style="stroke:#2F3A4A;stroke-width:1;" x1="368.4023" x2="368.4023" y1="67" y2="89"/><polygon fill="#2F3A4A" points="364.4023,79,368.4023,89,372.4023,79,368.4023,83" style="stroke:#2F3A4A;stroke-width:1;stroke-linejoin:miter;stroke-miterlimit:10;"/><line style="stroke:#2F3A4A;stroke-width:1;" x1="78.9512" x2="78.9512" y1="123.1328" y2="287.3984"/><line style="stroke:#2F3A4A;stroke-width:1;" x1="78.9512" x2="211.6768" y1="287.3984" y2="287.3984"/><polygon fill="#2F3A4A" points="201.6768,283.3984,211.6768,287.3984,201.6768,291.3984,205.6768,287.3984" style="stroke:#2F3A4A;stroke-width:1;stroke-linejoin:miter;stroke-miterlimit:10;"/><line style="stroke:#2F3A4A;stroke-width:1;" x1="223.6768" x2="223.6768" y1="35" y2="55"/><polygon fill="#2F3A4A" points="219.6768,45,223.6768,55,227.6768,45,223.6768,49" style="stroke:#2F3A4A;stroke-width:1;stroke-linejoin:miter;stroke-miterlimit:10;"/><line style="stroke:#2F3A4A;stroke-width:1;" x1="223.6768" x2="223.6768" y1="299.3984" y2="319.3984"/><polygon fill="#2F3A4A" points="219.6768,309.3984,223.6768,319.3984,227.6768,309.3984,223.6768,313.3984" style="stroke:#2F3A4A;stroke-width:1;stroke-linejoin:miter;stroke-miterlimit:10;"/><line style="stroke:#2F3A4A;stroke-width:1;" x1="223.6768" x2="223.6768" y1="353.5313" y2="373.5313"/><polygon fill="#2F3A4A" points="219.6768,363.5313,223.6768,373.5313,227.6768,363.5313,223.6768,367.5313" style="stroke:#2F3A4A;stroke-width:1;stroke-linejoin:miter;stroke-miterlimit:10;"/><line style="stroke:#2F3A4A;stroke-width:1;" x1="223.6768" x2="223.6768" y1="407.6641" y2="427.6641"/><polygon fill="#2F3A4A" points="219.6768,417.6641,223.6768,427.6641,227.6768,417.6641,223.6768,421.6641" style="stroke:#2F3A4A;stroke-width:1;stroke-linejoin:miter;stroke-miterlimit:10;"/><line style="stroke:#2F3A4A;stroke-width:1;" x1="223.6768" x2="223.6768" y1="475.9297" y2="495.9297"/><polygon fill="#2F3A4A" points="219.6768,485.9297,223.6768,495.9297,227.6768,485.9297,223.6768,489.9297" style="stroke:#2F3A4A;stroke-width:1;stroke-linejoin:miter;stroke-miterlimit:10;"/><?plantuml-src dL1DZzCm4BtdLuoMInUrGIr82-q1bT9iJokqkqZ0RPfC4gl-Y3nsgWhntnatKIa8Bbmi-xqtRvuV7vJjqAE1FPQ7nhjegutJpaFmQ5aeiY7ZYufRhDnHsGPgr4nNJ4KrHXqAPyC36e8RblaParVrpPKCow1w5KxmFGFuyCVE5yLTyQxO9CRvYlo8BehNwpThGPFvYCtdyxUBk-p7TGA5njdgxyxRRR4eYlzqNdllZh-F_2AV0lhmBt9x2J1I6ITvfcgOF7lLD2HDdpfwVmkX9GkJW0rqaTjR2RNyp7H-K0NzIn1gbP6q3XCk1OkQG9mDseZwh2yeb2tKKMjeL81MSN3-12Ybo32lH9CMFz0HIcUC2Zo5slcIfice9y_AsKkK4t5o5T-DCrqCvsqzQbMXtFil-TVysseKU4gOTYNgj0emm6wx_fZe8R5rezVJGNNWIHCo3TCIiaiwMwaw6yxbOxJGE0Z40MOUIu9P3_chFCzN0tdl7WSF3ywMuhJy5FTQSGltAkpY7aPw2iXCyj5CAYiF78tyEHMoSuRsNfgG0apKkCfIZfy0?></g></svg>