<svg xmlns="http://www.w3.org/2000/svg" xmlns:xlink="http://www.w3.org/1999/xlink" contentStyleType="text/css" data-diagram-type="ACTIVITY" height="804px" preserveAspectRatio="none" style="width:671px;height:804px;" version="1.1" viewBox="0 0 671 804" width="671px" zoomAndPan="magnify"><?plantuml 1.2026.5?><defs/><g><ellipse cx="389.0662" cy="25" fill="#222222" rx="10" ry="10" style="stroke:#222222;stroke-width:1;"/><rect fill="#F1F1F1" height="34.1328" rx="12.5" ry="12.5" style="stroke:#181818;stroke-width:0.5;" width="142.9121" x="317.6101" y="55"/><text fill="#000000" font-family="sans-serif" font-size="12" lengthAdjust="spacing" textLength="122.9121" x="327.6101" y="76.6016">Resolve -dir patterns</text><rect fill="#F1F1F1" height="34.1328" rx="12.5" ry="12.5" style="stroke:#181818;stroke-width:0.5;" width="178.5547" x="299.7888" y="109.1328"/><text fill="#000000" font-family="sans-serif" font-size="12" lengthAdjust="spacing" textLength="158.5547" x="309.7888" y="130.7344">Discover Terraform configs</text><rect fill="#F1F1F1" height="34.1328" rx="12.5" ry="12.5" style="stroke:#181818;stroke-width:0.5;" width="185.6797" x="296.2263" y="163.2656"/><text fill="#000000" font-family="sans-serif" font-size="12" lengthAdjust="spacing" textLength="165.6797" x="306.2263" y="184.8672">Apply -env and -layer filters</text><rect fill="#F1F1F1" height="34.1328" rx="12.5" ry="12.5" style="stroke:#181818;stroke-width:0.5;" width="168.1016" x="305.0154" y="265.876"/><text fill="#000000" font-family="sans-serif" font-size="12" lengthAdjust="spacing" textLength="148.1016" x="315.0154" y="287.4775">Apply CLI selection filters</text><polygon fill="#F1F1F1" points="305.884,217.3984,472.2483,217.3984,484.2483,229.3984,472.2483,241.3984,305.884,241.3984,293.884,229.3984,305.884,217.3984" style="stroke:#181818;stroke-width:0.5;stroke-linejoin:miter;stroke-miterlimit:10;"/><text fill="#000000" font-family="sans-serif" font-size="11" lengthAdjust="spacing" textLength="17.4829" x="393.0662" y="252.0332">yes</text><text fill="#000000" font-family="sans-serif" font-size="11" lengthAdjust="spacing" textLength="166.3643" x="305.884" y="233.5557">-include or -exclude provided?</text><polygon fill="#F1F1F1" points="389.0662,320.0088,401.0662,332.0088,389.0662,344.0088,377.0662,332.0088,389.0662,320.0088" style="stroke:#181818;stroke-width:0.5;stroke-linejoin:miter;stroke-miterlimit:10;"/><polygon fill="#F1F1F1" points="348.3506,364.0088,429.7817,364.0088,441.7817,376.0088,429.7817,388.0088,348.3506,388.0088,336.3506,376.0088,348.3506,364.0088" style="stroke:#181818;stroke-width:0.5;stroke-linejoin:miter;stroke-miterlimit:10;"/><text fill="#000000" font-family="sans-serif" font-size="11" lengthAdjust="spacing" textLength="81.4312" x="348.3506" y="380.166">Interactive TUI?</text><text fill="#000000" font-family="sans-serif" font-size="11" lengthAdjust="spacing" textLength="17.4829" x="318.8677" y="373.6885">yes</text><text fill="#000000" font-family="sans-serif" font-size="11" lengthAdjust="spacing" textLength="13.5835" x="441.7817" y="373.6885">no</text><rect fill="#F1F1F1" height="34.1328" rx="12.5" ry="12.5" style="stroke:#181818;stroke-width:0.5;" width="149.6211" x="150.0601" y="398.0088"/><text fill="#000000" font-family="sans-serif" font-size="12" lengthAdjust="spacing" textLength="129.6211" x="160.0601" y="419.6104">Show checkbox picker</text><rect fill="#F1F1F1" height="34.1328" rx="12.5" ry="12.5" style="stroke:#181818;stroke-width:0.5;" width="123.3008" x="163.2202" y="452.1416"/><text fill="#000000" font-family="sans-serif" font-size="12" lengthAdjust="spacing" textLength="103.3008" x="173.2202" y="473.7432">User ticks configs</text><polygon fill="#F1F1F1" points="167.1475,506.2744,282.5938,506.2744,294.5938,518.2744,282.5938,530.2744,167.1475,530.2744,155.1475,518.2744,167.1475,506.2744" style="stroke:#181818;stroke-width:0.5;stroke-linejoin:miter;stroke-miterlimit:10;"/><text fill="#000000" font-family="sans-serif" font-size="11" lengthAdjust="spacing" textLength="115.4463" x="167.1475" y="522.4316">At least one selected?</text><text fill="#000000" font-family="sans-serif" font-size="11" lengthAdjust="spacing" textLength="17.4829" x="137.6646" y="515.9541">yes</text><text fill="#000000" font-family="sans-serif" font-size="11" lengthAdjust="spacing" textLength="13.5835" x="294.5938" y="515.9541">no</text><rect fill="#F1F1F1" height="34.1328" rx="12.5" ry="12.5" style="stroke:#181818;stroke-width:0.5;" width="203.4277" x="16" y="540.2744"/><text fill="#000000" font-family="sans-serif" font-size="12" lengthAdjust="spacing" textLength="183.4277" x="26" y="561.876">Start scan with selected configs</text><rect fill="#F1F1F1" height="34.1328" rx="12.5" ry="12.5" style="stroke:#181818;stroke-width:0.5;" width="185.1992" x="239.4277" y="540.2744"/><text fill="#000000" font-family="sans-serif" font-size="12" lengthAdjust="spacing" textLength="165.1992" x="249.4277" y="561.876">Stay on picker with message</text><polygon fill="#F1F1F1" points="224.8706,580.4072,236.8706,592.4072,224.8706,604.4072,212.8706,592.4072,224.8706,580.4072" style="stroke:#181818;stroke-width:0.5;stroke-linejoin:miter;stroke-miterlimit:10;"/><rect fill="#F1F1F1" height="34.1328" rx="12.5" ry="12.5" style="stroke:#181818;stroke-width:0.5;" width="197.2695" x="454.627" y="398.0088"/><text fill="#000000" font-family="sans-serif" font-size="12" lengthAdjust="spacing" textLength="177.2695" x="464.627" y="419.6104">Start scan with filtered configs</text><polygon fill="#F1F1F1" points="389.0662,610.4072,401.0662,622.4072,389.0662,634.4072,377.0662,622.4072,389.0662,610.4072" style="stroke:#181818;stroke-width:0.5;stroke-linejoin:miter;stroke-miterlimit:10;"/><rect fill="#F1F1F1" height="34.1328" rx="12.5" ry="12.5" style="stroke:#181818;stroke-width:0.5;" width="115.9766" x="331.0779" y="654.4072"/><text fill="#000000" font-family="sans-serif" font-size="12" lengthAdjust="spacing" textLength="95.9766" x="341.0779" y="676.0088">Run worker pool</text><rect fill="#F1F1F1" height="34.1328" rx="12.5" ry="12.5" style="stroke:#181818;stroke-width:0.5;" width="100.584" x="338.7742" y="708.54"/><text fill="#000000" font-family="sans-serif" font-size="12" lengthAdjust="spacing" textLength="80.584" x="348.7742" y="730.1416">Render report</text><ellipse cx="389.0662" cy="773.6729" fill="none" rx="11" ry="11" style="stroke:#222222;stroke-width:1;"/><ellipse cx="389.0662" cy="773.6729" fill="#222222" rx="6" ry="6" style="stroke:#222222;stroke-width:1;"/><line style="stroke:#181818;stroke-width:1;" x1="389.0662" x2="389.0662" y1="35" y2="55"/><polygon fill="#181818" points="385.0662,45,389.0662,55,393.0662,45,389.0662,49" style="stroke:#181818;stroke-width:1;stroke-linejoin:miter;stroke-miterlimit:10;"/><line style="stroke:#181818;stroke-width:1;" x1="389.0662" x2="389.0662" y1="89.1328" y2="109.1328"/><polygon fill="#181818" points="385.0662,99.1328,389.0662,109.1328,393.0662,99.1328,389.0662,103.1328" style="stroke:#181818;stroke-width:1;stroke-linejoin:miter;stroke-miterlimit:10;"/><line style="stroke:#181818;stroke-width:1;" x1="389.0662" x2="389.0662" y1="143.2656" y2="163.2656"/><polygon fill="#181818" points="385.0662,153.2656,389.0662,163.2656,393.0662,153.2656,389.0662,157.2656" style="stroke:#181818;stroke-width:1;stroke-linejoin:miter;stroke-miterlimit:10;"/><line style="stroke:#181818;stroke-width:1;" x1="389.0662" x2="389.0662" y1="241.3984" y2="265.876"/><polygon fill="#181818" points="385.0662,255.876,389.0662,265.876,393.0662,255.876,389.0662,259.876" style="stroke:#181818;stroke-width:1;stroke-linejoin:miter;stroke-miterlimit:10;"/><line style="stroke:#181818;stroke-width:1;" x1="484.2483" x2="496.2483" y1="229.3984" y2="229.3984"/><polygon fill="#181818" points="492.2483,272.9424,496.2483,282.9424,500.2483,272.9424,496.2483,276.9424" style="stroke:#181818;stroke-width:1;stroke-linejoin:miter;stroke-miterlimit:10;"/><line style="stroke:#181818;stroke-width:1;" x1="496.2483" x2="496.2483" y1="229.3984" y2="332.0088"/><line style="stroke:#181818;stroke-width:1;" x1="496.2483" x2="401.0662" y1="332.0088" y2="332.0088"/><polygon fill="#181818" points="411.0662,328.0088,401.0662,332.0088,411.0662,336.0088,407.0662,332.0088" style="stroke:#181818;stroke-width:1;stroke-linejoin:miter;stroke-miterlimit:10;"/><line style="stroke:#181818;stroke-width:1;" x1="389.0662" x2="389.0662" y1="300.0088" y2="320.0088"/><polygon fill="#181818" points="385.0662,310.0088,389.0662,320.0088,393.0662,310.0088,389.0662,314.0088" style="stroke:#181818;stroke-width:1;stroke-linejoin:miter;stroke-miterlimit:10;"/><line style="stroke:#181818;stroke-width:1;" x1="389.0662" x2="389.0662" y1="197.3984" y2="217.3984"/><polygon fill="#181818" points="385.0662,207.3984,389.0662,217.3984,393.0662,207.3984,389.0662,211.3984" style="stroke:#181818;stroke-width:1;stroke-linejoin:miter;stroke-miterlimit:10;"/><line style="stroke:#181818;stroke-width:1;" x1="224.8706" x2="224.8706" y1="432.1416" y2="452.1416"/><polygon fill="#181818" points="220.8706,442.1416,224.8706,452.1416,228.8706,442.1416,224.8706,446.1416" style="stroke:#181818;stroke-width:1;stroke-linejoin:miter;stroke-miterlimit:10;"/><line style="stroke:#181818;stroke-width:1;" x1="155.1475" x2="117.7139" y1="518.2744" y2="518.2744"/><line style="stroke:#181818;stroke-width:1;" x1="117.7139" x2="117.7139" y1="518.2744" y2="540.2744"/><polygon fill="#181818" points="113.7139,530.2744,117.7139,540.2744,121.7139,530.2744,117.7139,534.2744" style="stroke:#181818;stroke-width:1;stroke-linejoin:miter;stroke-miterlimit:10;"/><line style="stroke:#181818;stroke-width:1;" x1="294.5938" x2="332.0273" y1="518.2744" y2="518.2744"/><line style="stroke:#181818;stroke-width:1;" x1="332.0273" x2="332.0273" y1="518.2744" y2="540.2744"/><polygon fill="#181818" points="328.0273,530.2744,332.0273,540.2744,336.0273,530.2744,332.0273,534.2744" style="stroke:#181818;stroke-width:1;stroke-linejoin:miter;stroke-miterlimit:10;"/><line style="stroke:#181818;stroke-width:1;" x1="117.7139" x2="117.7139" y1="574.4072" y2="592.4072"/><line style="stroke:#181818;stroke-width:1;" x1="117.7139" x2="212.8706" y1="592.4072" y2="592.4072"/><polygon fill="#181818" points="202.8706,588.4072,212.8706,592.4072,202.8706,596.4072,206.8706,592.4072" style="stroke:#181818;stroke-width:1;stroke-linejoin:miter;stroke-miterlimit:10;"/><line style="stroke:#181818;stroke-width:1;" x1="332.0273" x2="332.0273" y1="574.4072" y2="592.4072"/><line style="stroke:#181818;stroke-width:1;" x1="332.0273" x2="236.8706" y1="592.4072" y2="592.4072"/><polygon fill="#181818" points="246.8706,588.4072,236.8706,592.4072,246.8706,596.4072,242.8706,592.4072" style="stroke:#181818;stroke-width:1;stroke-linejoin:miter;stroke-miterlimit:10;"/><line style="stroke:#181818;stroke-width:1;" x1="224.8706" x2="224.8706" y1="486.2744" y2="506.2744"/><polygon fill="#181818" points="220.8706,496.2744,224.8706,506.2744,228.8706,496.2744,224.8706,500.2744" style="stroke:#181818;stroke-width:1;stroke-linejoin:miter;stroke-miterlimit:10;"/><line style="stroke:#181818;stroke-width:1;" x1="336.3506" x2="224.8706" y1="376.0088" y2="376.0088"/><line style="stroke:#181818;stroke-width:1;" x1="224.8706" x2="224.8706" y1="376.0088" y2="398.0088"/><polygon fill="#181818" points="220.8706,388.0088,224.8706,398.0088,228.8706,388.0088,224.8706,392.0088" style="stroke:#181818;stroke-width:1;stroke-linejoin:miter;stroke-miterlimit:10;"/><line style="stroke:#181818;stroke-width:1;" x1="441.7817" x2="553.2617" y1="376.0088" y2="376.0088"/><line style="stroke:#181818;stroke-width:1;" x1="553.2617" x2="553.2617" y1="376.0088" y2="398.0088"/><polygon fill="#181818" points="549.2617,388.0088,553.2617,398.0088,557.2617,388.0088,553.2617,392.0088" style="stroke:#181818;stroke-width:1;stroke-linejoin:miter;stroke-miterlimit:10;"/><line style="stroke:#181818;stroke-width:1;" x1="224.8706" x2="224.8706" y1="604.4072" y2="622.4072"/><line style="stroke:#181818;stroke-width:1;" x1="224.8706" x2="377.0662" y1="622.4072" y2="622.4072"/><polygon fill="#181818" points="367.0662,618.4072,377.0662,622.4072,367.0662,626.4072,371.0662,622.4072" style="stroke:#181818;stroke-width:1;stroke-linejoin:miter;stroke-miterlimit:10;"/><line style="stroke:#181818;stroke-width:1;" x1="553.2617" x2="553.2617" y1="432.1416" y2="622.4072"/><line style="stroke:#181818;stroke-width:1;" x1="553.2617" x2="401.0662" y1="622.4072" y2="622.4072"/><polygon fill="#181818" points="411.0662,618.4072,401.0662,622.4072,411.0662,626.4072,407.0662,622.4072" style="stroke:#181818;stroke-width:1;stroke-linejoin:miter;stroke-miterlimit:10;"/><line style="stroke:#181818;stroke-width:1;" x1="389.0662" x2="389.0662" y1="344.0088" y2="364.0088"/><polygon fill="#181818" points="385.0662,354.0088,389.0662,364.0088,393.0662,354.0088,389.0662,358.0088" style="stroke:#181818;stroke-width:1;stroke-linejoin:miter;stroke-miterlimit:10;"/><line style="stroke:#181818;stroke-width:1;" x1="389.0662" x2="389.0662" y1="634.4072" y2="654.4072"/><polygon fill="#181818" points="385.0662,644.4072,389.0662,654.4072,393.0662,644.4072,389.0662,648.4072" style="stroke:#181818;stroke-width:1;stroke-linejoin:miter;stroke-miterlimit:10;"/><line style="stroke:#181818;stroke-width:1;" x1="389.0662" x2="389.0662" y1="688.54" y2="708.54"/><polygon fill="#181818" points="385.0662,698.54,389.0662,708.54,393.0662,698.54,389.0662,702.54" style="stroke:#181818;stroke-width:1;stroke-linejoin:miter;stroke-miterlimit:10;"/><line style="stroke:#181818;stroke-width:1;" x1="389.0662" x2="389.0662" y1="742.6729" y2="762.6729"/><polygon fill="#181818" points="385.0662,752.6729,389.0662,762.6729,393.0662,752.6729,389.0662,756.6729" style="stroke:#181818;stroke-width:1;stroke-linejoin:miter;stroke-miterlimit:10;"/><?plantuml-src PP51Zi8m34NtFOMNiEW5w6A4c0tIh6RW025nswYf7TbfeRUVX290OXCb-ly__oGwU8f6p0WNOuTEU29tuC02IGnfbf1IfK-NmzPC8PtmblR1TpHc6MnUKAfAav5KxNvHESm8jVC2qQIiaJRLxjkhvHa5JYXYMfOHB5FhkoBkOmmBr4Wp679G1xDaP-j3JcVTjx2fFTamEOJShiRRke_2itVelhQGUYJOBAZR2k01FFmSGJ6WJPxfXKDolhr3ZwMwoN8kV3eVFp1_FL_1zcY72zyWUZkWD4KuQ-wNybbVjm0eo7s2W4OJCE5Z-6U_WYxF1MeDmTMd_cbzvs5GX0tnAx9axAF76XjHrNHuTz-lzPxv6B8-mVkGDRJxdRA3fM0ZSsZAFvBB9y78afhyknp_0G00?></g></svg>