<svg xmlns="http://www.w3.org/2000/svg" xmlns:xlink="http://www.w3.org/1999/xlink" contentStyleType="text/css" data-diagram-type="ACTIVITY" height="473px" preserveAspectRatio="none" style="width:581px;height:473px;" version="1.1" viewBox="0 0 581 473" width="581px" zoomAndPan="magnify"><?plantuml 1.2026.5?><defs/><g><ellipse cx="287.8115" cy="25" fill="#222222" rx="10" ry="10" style="stroke:#222222;stroke-width:1;"/><rect fill="#F1F1F1" height="34.1328" rx="12.5" ry="12.5" style="stroke:#181818;stroke-width:0.5;" width="198.7988" x="188.4121" y="55"/><text fill="#000000" font-family="sans-serif" font-size="12" lengthAdjust="spacing" textLength="178.7988" x="198.4121" y="76.6016">Run tf-drift against examples/</text><rect fill="#F1F1F1" height="34.1328" rx="12.5" ry="12.5" style="stroke:#181818;stroke-width:0.5;" width="204.2012" x="185.7109" y="109.1328"/><text fill="#000000" font-family="sans-serif" font-size="12" lengthAdjust="spacing" textLength="184.2012" x="195.7109" y="130.7344">Discover three Terraform layers</text><rect fill="#555555" height="6" rx="2.5" ry="2.5" style="stroke:#555555;stroke-width:1;" width="545.0469" x="16" y="163.2656"/><rect fill="#F1F1F1" height="34.1328" rx="12.5" ry="12.5" style="stroke:#181818;stroke-width:0.5;" width="93.5176" x="55.0967" y="189.2656"/><text fill="#000000" font-family="sans-serif" font-size="12" lengthAdjust="spacing" textLength="73.5176" x="65.0967" y="210.8672">clean-empty</text><rect fill="#F1F1F1" height="34.1328" rx="12.5" ry="12.5" style="stroke:#181818;stroke-width:0.5;" width="147.7109" x="28" y="243.3984"/><text fill="#000000" font-family="sans-serif" font-size="12" lengthAdjust="spacing" textLength="127.7109" x="38" y="265">terraform plan exits 0</text><rect fill="#F1F1F1" height="34.1328" rx="12.5" ry="12.5" style="stroke:#181818;stroke-width:0.5;" width="100.7422" x="51.4844" y="297.5313"/><text fill="#000000" font-family="sans-serif" font-size="12" lengthAdjust="spacing" textLength="80.7422" x="61.4844" y="319.1328">Report CLEAN</text><rect fill="#F1F1F1" height="34.1328" rx="12.5" ry="12.5" style="stroke:#181818;stroke-width:0.5;" width="132.3711" x="209.957" y="189.2656"/><text fill="#000000" font-family="sans-serif" font-size="12" lengthAdjust="spacing" textLength="112.3711" x="219.957" y="210.8672">drift-new-resource</text><rect fill="#F1F1F1" height="34.1328" rx="12.5" ry="12.5" style="stroke:#181818;stroke-width:0.5;" width="147.7109" x="202.2871" y="243.3984"/><text fill="#000000" font-family="sans-serif" font-size="12" lengthAdjust="spacing" textLength="127.7109" x="212.2871" y="265">terraform plan exits 2</text><rect fill="#F1F1F1" height="34.1328" rx="12.5" ry="12.5" style="stroke:#181818;stroke-width:0.5;" width="116.9258" x="217.6797" y="297.5313"/><text fill="#000000" font-family="sans-serif" font-size="12" lengthAdjust="spacing" textLength="96.9258" x="227.6797" y="319.1328">Report PLANNED</text><rect fill="#F1F1F1" height="34.1328" rx="12.5" ry="12.5" style="stroke:#181818;stroke-width:0.5;" width="137.2461" x="394.8994" y="189.2656"/><text fill="#000000" font-family="sans-serif" font-size="12" lengthAdjust="spacing" textLength="117.2461" x="404.8994" y="210.8672">error-invalid-config</text><rect fill="#F1F1F1" height="34.1328" rx="12.5" ry="12.5" style="stroke:#181818;stroke-width:0.5;" width="171.0488" x="377.998" y="243.3984"/><text fill="#000000" font-family="sans-serif" font-size="12" lengthAdjust="spacing" textLength="151.0488" x="387.998" y="265">terraform init or plan fails</text><rect fill="#F1F1F1" height="34.1328" rx="12.5" ry="12.5" style="stroke:#181818;stroke-width:0.5;" width="100.9824" x="413.0313" y="297.5313"/><text fill="#000000" font-family="sans-serif" font-size="12" lengthAdjust="spacing" textLength="80.9824" x="423.0313" y="319.1328">Report ERROR</text><rect fill="#555555" height="6" rx="2.5" ry="2.5" style="stroke:#555555;stroke-width:1;" width="545.0469" x="16" y="351.6641"/><rect fill="#F1F1F1" height="34.1328" rx="12.5" ry="12.5" style="stroke:#181818;stroke-width:0.5;" width="172.5371" x="201.543" y="377.6641"/><text fill="#000000" font-family="sans-serif" font-size="12" lengthAdjust="spacing" textLength="152.5371" x="211.543" y="399.2656">Show mixed-status report</text><ellipse cx="287.8115" cy="442.7969" fill="none" rx="11" ry="11" style="stroke:#222222;stroke-width:1;"/><ellipse cx="287.8115" cy="442.7969" fill="#222222" rx="6" ry="6" style="stroke:#222222;stroke-width:1;"/><line style="stroke:#181818;stroke-width:1;" x1="287.8115" x2="287.8115" y1="35" y2="55"/><polygon fill="#181818" points="283.8115,45,287.8115,55,291.8115,45,287.8115,49" style="stroke:#181818;stroke-width:1;stroke-linejoin:miter;stroke-miterlimit:10;"/><line style="stroke:#181818;stroke-width:1;" x1="287.8115" x2="287.8115" y1="89.1328" y2="109.1328"/><polygon fill="#181818" points="283.8115,99.1328,287.8115,109.1328,291.8115,99.1328,287.8115,103.1328" style="stroke:#181818;stroke-width:1;stroke-linejoin:miter;stroke-miterlimit:10;"/><line style="stroke:#181818;stroke-width:1;" x1="101.8555" x2="101.8555" y1="223.3984" y2="243.3984"/><polygon fill="#181818" points="97.8555,233.3984,101.8555,243.3984,105.8555,233.3984,101.8555,237.3984" style="stroke:#181818;stroke-width:1;stroke-linejoin:miter;stroke-miterlimit:10;"/><line style="stroke:#181818;stroke-width:1;" x1="101.8555" x2="101.8555" y1="277.5313" y2="297.5313"/><polygon fill="#181818" points="97.8555,287.5313,101.8555,297.5313,105.8555,287.5313,101.8555,291.5313" style="stroke:#181818;stroke-width:1;stroke-linejoin:miter;stroke-miterlimit:10;"/><line style="stroke:#181818;stroke-width:1;" x1="276.1426" x2="276.1426" y1="223.3984" y2="243.3984"/><polygon fill="#181818" points="272.1426,233.3984,276.1426,243.3984,280.1426,233.3984,276.1426,237.3984" style="stroke:#181818;stroke-width:1;stroke-linejoin:miter;stroke-miterlimit:10;"/><line style="stroke:#181818;stroke-width:1;" x1="276.1426" x2="276.1426" y1="277.5313" y2="297.5313"/><polygon fill="#181818" points="272.1426,287.5313,276.1426,297.5313,280.1426,287.5313,276.1426,291.5313" style="stroke:#181818;stroke-width:1;stroke-linejoin:miter;stroke-miterlimit:10;"/><line style="stroke:#181818;stroke-width:1;" x1="463.5225" x2="463.5225" y1="223.3984" y2="243.3984"/><polygon fill="#181818" points="459.5225,233.3984,463.5225,243.3984,467.5225,233.3984,463.5225,237.3984" style="stroke:#181818;stroke-width:1;stroke-linejoin:miter;stroke-miterlimit:10;"/><line style="stroke:#181818;stroke-width:1;" x1="463.5225" x2="463.5225" y1="277.5313" y2="297.5313"/><polygon fill="#181818" points="459.5225,287.5313,463.5225,297.5313,467.5225,287.5313,463.5225,291.5313" style="stroke:#181818;stroke-width:1;stroke-linejoin:miter;stroke-miterlimit:10;"/><line style="stroke:#181818;stroke-width:1;" x1="101.8555" x2="101.8555" y1="169.2656" y2="189.2656"/><polygon fill="#181818" points="97.8555,179.2656,101.8555,189.2656,105.8555,179.2656,101.8555,183.2656" style="stroke:#181818;stroke-width:1;stroke-linejoin:miter;stroke-miterlimit:10;"/><line style="stroke:#181818;stroke-width:1;" x1="276.1426" x2="276.1426" y1="169.2656" y2="189.2656"/><polygon fill="#181818" points="272.1426,179.2656,276.1426,189.2656,280.1426,179.2656,276.1426,183.2656" style="stroke:#181818;stroke-width:1;stroke-linejoin:miter;stroke-miterlimit:10;"/><line style="stroke:#181818;stroke-width:1;" x1="463.5225" x2="463.5225" y1="169.2656" y2="189.2656"/><polygon fill="#181818" points="459.5225,179.2656,463.5225,189.2656,467.5225,179.2656,463.5225,183.2656" style="stroke:#181818;stroke-width:1;stroke-linejoin:miter;stroke-miterlimit:10;"/><line style="stroke:#181818;stroke-width:1;" x1="101.8555" x2="101.8555" y1="331.6641" y2="351.6641"/><polygon fill="#181818" points="97.8555,341.6641,101.8555,351.6641,105.8555,341.6641,101.8555,345.6641" style="stroke:#181818;stroke-width:1;stroke-linejoin:miter;stroke-miterlimit:10;"/><line style="stroke:#181818;stroke-width:1;" x1="276.1426" x2="276.1426" y1="331.6641" y2="351.6641"/><polygon fill="#181818" points="272.1426,341.6641,276.1426,351.6641,280.1426,341.6641,276.1426,345.6641" style="stroke:#181818;stroke-width:1;stroke-linejoin:miter;stroke-miterlimit:10;"/><line style="stroke:#181818;stroke-width:1;" x1="463.5225" x2="463.5225" y1="331.6641" y2="351.6641"/><polygon fill="#181818" points="459.5225,341.6641,463.5225,351.6641,467.5225,341.6641,463.5225,345.6641" style="stroke:#181818;stroke-width:1;stroke-linejoin:miter;stroke-miterlimit:10;"/><line style="stroke:#181818;stroke-width:1;" x1="287.8115" x2="287.8115" y1="143.2656" y2="163.2656"/><polygon fill="#181818" points="283.8115,153.2656,287.8115,163.2656,291.8115,153.2656,287.8115,157.2656" style="stroke:#181818;stroke-width:1;stroke-linejoin:miter;stroke-miterlimit:10;"/><line style="stroke:#181818;stroke-width:1;" x1="287.8115" x2="287.8115" y1="357.6641" y2="377.6641"/><polygon fill="#181818" points="283.8115,367.6641,287.8115,377.6641,291.8115,367.6641,287.8115,371.6641" style="stroke:#181818;stroke-width:1;stroke-linejoin:miter;stroke-miterlimit:10;"/><line style="stroke:#181818;stroke-width:1;" x1="287.8115" x2="287.8115" y1="411.7969" y2="431.7969"/><polygon fill="#181818" points="283.8115,421.7969,287.8115,431.7969,291.8115,421.7969,287.8115,425.7969" style="stroke:#181818;stroke-width:1;stroke-linejoin:miter;stroke-miterlimit:10;"/><?plantuml-src TP11QiD034NtSmfTO6ZfqbwPnBkG1ZSNK6tP4HbhZ4PEdDjtua08WMu4udyzIJ-TMIPK7E4Ns_EWSPPk4qDKC4L9MI8nbvwkZdgSWnrfiIhm86EMeSs5rBbagEQAPXQmtdVAlG4Eo98CQC5n2fG-IbTiERNnGdd7IOdWIAhOHnqXu8qqbIutPmTGj85GF8sJtSfxRq_d550oaot1voerD4KrsEpgQly0F5RVjVKIBtJrIYdEsjB_jAzNsc5NxVVrzfsNvw9wbWi6xdmRfUVXZSZ21Zd5bTmZX_JAhPlckoaTIGVhgyNFALvXv8KwdqEqEO6kpZ9d6gS_?></g></svg>