<svg xmlns="http://www.w3.org/2000/svg" xmlns:xlink="http://www.w3.org/1999/xlink" contentStyleType="text/css" data-diagram-type="ACTIVITY" height="1322px" preserveAspectRatio="none" style="width:760px;height:1322px;" version="1.1" viewBox="0 0 760 1322" width="760px" zoomAndPan="magnify"><?plantuml 1.2026.5?><defs/><g><ellipse cx="372.5508" cy="25" fill="#222222" rx="10" ry="10" style="stroke:#222222;stroke-width:1;"/><rect fill="#F1F1F1" height="34.1328" rx="12.5" ry="12.5" style="stroke:#181818;stroke-width:0.5;" width="210.1309" x="267.4854" y="55"/><text fill="#000000" font-family="sans-serif" font-size="12" lengthAdjust="spacing" textLength="190.1309" x="277.4854" y="76.6016">Parse Command Line Arguments</text><path d="M499.5967,113.5439 L499.5967,122.1992 L479.5967,126.1992 L499.5967,130.1992 L499.5967,138.8545 A0,0 0 0 0 499.5967,138.8545 L687.4385,138.8545 A0,0 0 0 0 687.4385,138.8545 L687.4385,123.5439 L677.4385,113.5439 L499.5967,113.5439 A0,0 0 0 0 499.5967,113.5439" fill="#FEFFDD" style="stroke:#181818;stroke-width:0.5;"/><path d="M677.4385,113.5439 L677.4385,123.5439 L687.4385,123.5439 L677.4385,113.5439" fill="#FEFFDD" style="stroke:#181818;stroke-width:0.5;"/><text fill="#000000" font-family="sans-serif" font-size="13" lengthAdjust="spacing" textLength="166.8418" x="505.5967" y="131.1123">Finds folders with *.tf files</text><rect fill="#F1F1F1" height="34.1328" rx="12.5" ry="12.5" style="stroke:#181818;stroke-width:0.5;" width="214.0918" x="265.5049" y="109.1328"/><text fill="#000000" font-family="sans-serif" font-size="12" lengthAdjust="spacing" textLength="194.0918" x="275.5049" y="130.7344">Scan Target Directory Recursively</text><rect fill="#F1F1F1" height="34.1328" rx="12.5" ry="12.5" style="stroke:#181818;stroke-width:0.5;" width="298.0977" x="223.502" y="163.2656"/><text fill="#000000" font-family="sans-serif" font-size="12" lengthAdjust="spacing" textLength="278.0977" x="233.502" y="184.8672">Filter Layers by -env, -layer, -include, -exclude</text><polygon fill="#F1F1F1" points="342.4485,217.3984,402.6531,217.3984,414.6531,229.3984,402.6531,241.3984,342.4485,241.3984,330.4485,229.3984,342.4485,217.3984" style="stroke:#181818;stroke-width:0.5;stroke-linejoin:miter;stroke-miterlimit:10;"/><text fill="#000000" font-family="sans-serif" font-size="11" lengthAdjust="spacing" textLength="60.2046" x="342.4485" y="233.5557">Interactive?</text><text fill="#000000" font-family="sans-serif" font-size="11" lengthAdjust="spacing" textLength="17.4829" x="312.9656" y="227.0781">yes</text><text fill="#000000" font-family="sans-serif" font-size="11" lengthAdjust="spacing" textLength="13.5835" x="414.6531" y="227.0781">no</text><rect fill="#F1F1F1" height="34.1328" rx="12.5" ry="12.5" style="stroke:#181818;stroke-width:0.5;" width="149.6211" x="217.8281" y="251.3984"/><text fill="#000000" font-family="sans-serif" font-size="12" lengthAdjust="spacing" textLength="129.6211" x="227.8281" y="273">Show checkbox picker</text><rect fill="#F1F1F1" height="34.1328" rx="12.5" ry="12.5" style="stroke:#181818;stroke-width:0.5;" width="136.1855" x="224.5459" y="305.5313"/><text fill="#000000" font-family="sans-serif" font-size="12" lengthAdjust="spacing" textLength="116.1855" x="234.5459" y="327.1328">Scan selected layers</text><rect fill="#F1F1F1" height="34.1328" rx="12.5" ry="12.5" style="stroke:#181818;stroke-width:0.5;" width="130.0273" x="387.4492" y="251.3984"/><text fill="#000000" font-family="sans-serif" font-size="12" lengthAdjust="spacing" textLength="110.0273" x="397.4492" y="273">Scan filtered layers</text><polygon fill="#F1F1F1" points="372.5508,345.6641,384.5508,357.6641,372.5508,369.6641,360.5508,357.6641,372.5508,345.6641" style="stroke:#181818;stroke-width:0.5;stroke-linejoin:miter;stroke-miterlimit:10;"/><rect fill="#F1F1F1" height="34.1328" rx="12.5" ry="12.5" style="stroke:#181818;stroke-width:0.5;" width="251.5801" x="246.7607" y="389.6641"/><text fill="#000000" font-family="sans-serif" font-size="12" lengthAdjust="spacing" textLength="231.5801" x="256.7607" y="411.2656">Initialize Worker Pool (concurrency = N)</text><rect fill="#555555" height="6" rx="2.5" ry="2.5" style="stroke:#555555;stroke-width:1;" width="723.1016" x="16" y="443.7969"/><rect fill="#F1F1F1" height="34.1328" rx="12.5" ry="12.5" style="stroke:#181818;stroke-width:0.5;" width="139.8008" x="134.9727" y="469.7969"/><text fill="#000000" font-family="sans-serif" font-size="12" lengthAdjust="spacing" textLength="119.8008" x="144.9727" y="491.3984">Worker Queue Tasks</text><rect fill="#F1F1F1" height="34.1328" rx="12.5" ry="12.5" style="stroke:#181818;stroke-width:0.5;" width="76.2441" x="166.751" y="580.0645"/><text fill="#000000" font-family="sans-serif" font-size="12" lengthAdjust="spacing" textLength="56.2441" x="176.751" y="601.666">Pop Layer</text><rect fill="#F1F1F1" height="34.1328" rx="12.5" ry="12.5" style="stroke:#181818;stroke-width:0.5;" width="110.8027" x="149.4717" y="634.1973"/><text fill="#000000" font-family="sans-serif" font-size="12" lengthAdjust="spacing" textLength="90.8027" x="159.4717" y="655.7988">Check Init State</text><rect fill="#F1F1F1" height="34.1328" rx="12.5" ry="12.5" style="stroke:#181818;stroke-width:0.5;" width="129.9629" x="139.8916" y="751.8076"/><text fill="#000000" font-family="sans-serif" font-size="12" lengthAdjust="spacing" textLength="109.9629" x="149.8916" y="773.4092">Run 'terraform init'</text><polygon fill="#F1F1F1" points="178.5144,703.3301,231.2317,703.3301,243.2317,715.3301,231.2317,727.3301,178.5144,727.3301,166.5144,715.3301,178.5144,703.3301" style="stroke:#181818;stroke-width:0.5;stroke-linejoin:miter;stroke-miterlimit:10;"/><text fill="#000000" font-family="sans-serif" font-size="11" lengthAdjust="spacing" textLength="17.4829" x="208.873" y="737.9648">yes</text><text fill="#000000" font-family="sans-serif" font-size="11" lengthAdjust="spacing" textLength="52.7173" x="178.5144" y="719.4873">Need Init?</text><polygon fill="#F1F1F1" points="204.873,810.418,216.873,822.418,204.873,834.418,192.873,822.418,204.873,810.418" style="stroke:#181818;stroke-width:0.5;stroke-linejoin:miter;stroke-miterlimit:10;"/><rect fill="#F1F1F1" height="34.1328" rx="12.5" ry="12.5" style="stroke:#181818;stroke-width:0.5;" width="321.7461" x="44" y="854.418"/><text fill="#000000" font-family="sans-serif" font-size="12" lengthAdjust="spacing" textLength="301.7461" x="54" y="876.0195">Run 'terraform plan -detailed-exitcode -lock=false'</text><rect fill="#F1F1F1" height="34.1328" rx="12.5" ry="12.5" style="stroke:#181818;stroke-width:0.5;" width="176.5977" x="116.5742" y="957.0283"/><text fill="#000000" font-family="sans-serif" font-size="12" lengthAdjust="spacing" textLength="156.5977" x="126.5742" y="978.6299">Run 'terraform show -json'</text><rect fill="#F1F1F1" height="34.1328" rx="12.5" ry="12.5" style="stroke:#181818;stroke-width:0.5;" width="174.125" x="117.8105" y="1026.1611"/><text fill="#000000" font-family="sans-serif" font-size="12" lengthAdjust="spacing" textLength="154.125" x="127.8105" y="1047.7627">Parse and Apply rules.json</text><polygon fill="#F1F1F1" points="122.6389,908.5508,287.1072,908.5508,299.1072,920.5508,287.1072,932.5508,122.6389,932.5508,110.6389,920.5508,122.6389,908.5508" style="stroke:#181818;stroke-width:0.5;stroke-linejoin:miter;stroke-miterlimit:10;"/><text fill="#000000" font-family="sans-serif" font-size="11" lengthAdjust="spacing" textLength="17.4829" x="208.873" y="943.1855">yes</text><text fill="#000000" font-family="sans-serif" font-size="11" lengthAdjust="spacing" textLength="164.4683" x="122.6389" y="924.708">Detailed Exit Code == 2 (Drift)</text><polygon fill="#F1F1F1" points="204.873,1080.2939,216.873,1092.2939,204.873,1104.2939,192.873,1092.2939,204.873,1080.2939" style="stroke:#181818;stroke-width:0.5;stroke-linejoin:miter;stroke-miterlimit:10;"/><rect fill="#F1F1F1" height="34.1328" rx="12.5" ry="12.5" style="stroke:#181818;stroke-width:0.5;" width="230.2461" x="89.75" y="1124.2939"/><text fill="#000000" font-family="sans-serif" font-size="12" lengthAdjust="spacing" textLength="210.2461" x="99.75" y="1145.8955">Send Result to TUI Loop via p.Send()</text><polygon fill="#F1F1F1" points="148.2563,523.9297,261.4897,523.9297,273.4897,535.9297,261.4897,547.9297,148.2563,547.9297,136.2563,535.9297,148.2563,523.9297" style="stroke:#181818;stroke-width:0.5;stroke-linejoin:miter;stroke-miterlimit:10;"/><text fill="#000000" font-family="sans-serif" font-size="11" lengthAdjust="spacing" textLength="17.4829" x="208.873" y="558.5645">yes</text><text fill="#000000" font-family="sans-serif" font-size="11" lengthAdjust="spacing" textLength="113.2334" x="148.2563" y="540.0869">Has Layers in Queue?</text><rect fill="#F1F1F1" height="34.1328" rx="12.5" ry="12.5" style="stroke:#181818;stroke-width:0.5;" width="139.9531" x="501.4473" y="670.1973"/><text fill="#000000" font-family="sans-serif" font-size="12" lengthAdjust="spacing" textLength="119.9531" x="511.4473" y="691.7988">Bubble Tea TUI Loop</text><rect fill="#F1F1F1" height="34.1328" rx="12.5" ry="12.5" style="stroke:#181818;stroke-width:0.5;" width="241.6895" x="450.5791" y="800.2852"/><text fill="#000000" font-family="sans-serif" font-size="12" lengthAdjust="spacing" textLength="221.6895" x="460.5791" y="821.8867">Render Live Progress / Active Workers</text><rect fill="#F1F1F1" height="34.1328" rx="12.5" ry="12.5" style="stroke:#181818;stroke-width:0.5;" width="244.5195" x="449.1641" y="854.418"/><text fill="#000000" font-family="sans-serif" font-size="12" lengthAdjust="spacing" textLength="224.5195" x="459.1641" y="876.0195">Render Interactive List &amp; Detailed View</text><rect fill="#F1F1F1" height="34.1328" rx="12.5" ry="12.5" style="stroke:#181818;stroke-width:0.5;" width="283.3555" x="429.7461" y="908.5508"/><text fill="#000000" font-family="sans-serif" font-size="12" lengthAdjust="spacing" textLength="263.3555" x="439.7461" y="930.1523">Handle Keyboard Input (Scroll, Filter, Inspect)</text><polygon fill="#F1F1F1" points="546.9531,739.3301,595.8945,739.3301,607.8945,751.3301,595.8945,763.3301,546.9531,763.3301,534.9531,751.3301,546.9531,739.3301" style="stroke:#181818;stroke-width:0.5;stroke-linejoin:miter;stroke-miterlimit:10;"/><text fill="#000000" font-family="sans-serif" font-size="11" lengthAdjust="spacing" textLength="17.4829" x="575.4238" y="773.9648">yes</text><text fill="#000000" font-family="sans-serif" font-size="11" lengthAdjust="spacing" textLength="48.9414" x="546.9531" y="755.4873">Running?</text><text fill="#000000" font-family="sans-serif" font-size="11" lengthAdjust="spacing" textLength="13.5835" x="521.3696" y="749.0098">no</text><rect fill="#555555" height="6" rx="2.5" ry="2.5" style="stroke:#555555;stroke-width:1;" width="723.1016" x="16" y="1200.4268"/><rect fill="#F1F1F1" height="34.1328" rx="12.5" ry="12.5" style="stroke:#181818;stroke-width:0.5;" width="162.2773" x="291.4121" y="1226.4268"/><text fill="#000000" font-family="sans-serif" font-size="12" lengthAdjust="spacing" textLength="142.2773" x="301.4121" y="1248.0283">Print Final Report or Exit</text><ellipse cx="372.5508" cy="1291.5596" fill="none" rx="11" ry="11" style="stroke:#222222;stroke-width:1;"/><ellipse cx="372.5508" cy="1291.5596" fill="#222222" rx="6" ry="6" style="stroke:#222222;stroke-width:1;"/><line style="stroke:#181818;stroke-width:1;" x1="372.5508" x2="372.5508" y1="35" y2="55"/><polygon fill="#181818" points="368.5508,45,372.5508,55,376.5508,45,372.5508,49" style="stroke:#181818;stroke-width:1;stroke-linejoin:miter;stroke-miterlimit:10;"/><line style="stroke:#181818;stroke-width:1;" x1="372.5508" x2="372.5508" y1="89.1328" y2="109.1328"/><polygon fill="#181818" points="368.5508,99.1328,372.5508,109.1328,376.5508,99.1328,372.5508,103.1328" style="stroke:#181818;stroke-width:1;stroke-linejoin:miter;stroke-miterlimit:10;"/><line style="stroke:#181818;stroke-width:1;" x1="372.5508" x2="372.5508" y1="143.2656" y2="163.2656"/><polygon fill="#181818" points="368.5508,153.2656,372.5508,163.2656,376.5508,153.2656,372.5508,157.2656" style="stroke:#181818;stroke-width:1;stroke-linejoin:miter;stroke-miterlimit:10;"/><line style="stroke:#181818;stroke-width:1;" x1="292.6387" x2="292.6387" y1="285.5313" y2="305.5313"/><polygon fill="#181818" points="288.6387,295.5313,292.6387,305.5313,296.6387,295.5313,292.6387,299.5313" style="stroke:#181818;stroke-width:1;stroke-linejoin:miter;stroke-miterlimit:10;"/><line style="stroke:#181818;stroke-width:1;" x1="330.4485" x2="292.6387" y1="229.3984" y2="229.3984"/><line style="stroke:#181818;stroke-width:1;" x1="292.6387" x2="292.6387" y1="229.3984" y2="251.3984"/><polygon fill="#181818" points="288.6387,241.3984,292.6387,251.3984,296.6387,241.3984,292.6387,245.3984" style="stroke:#181818;stroke-width:1;stroke-linejoin:miter;stroke-miterlimit:10;"/><line style="stroke:#181818;stroke-width:1;" x1="414.6531" x2="452.4629" y1="229.3984" y2="229.3984"/><line style="stroke:#181818;stroke-width:1;" x1="452.4629" x2="452.4629" y1="229.3984" y2="251.3984"/><polygon fill="#181818" points="448.4629,241.3984,452.4629,251.3984,456.4629,241.3984,452.4629,245.3984" style="stroke:#181818;stroke-width:1;stroke-linejoin:miter;stroke-miterlimit:10;"/><line style="stroke:#181818;stroke-width:1;" x1="292.6387" x2="292.6387" y1="339.6641" y2="357.6641"/><line style="stroke:#181818;stroke-width:1;" x1="292.6387" x2="360.5508" y1="357.6641" y2="357.6641"/><polygon fill="#181818" points="350.5508,353.6641,360.5508,357.6641,350.5508,361.6641,354.5508,357.6641" style="stroke:#181818;stroke-width:1;stroke-linejoin:miter;stroke-miterlimit:10;"/><line style="stroke:#181818;stroke-width:1;" x1="452.4629" x2="452.4629" y1="285.5313" y2="357.6641"/><line style="stroke:#181818;stroke-width:1;" x1="452.4629" x2="384.5508" y1="357.6641" y2="357.6641"/><polygon fill="#181818" points="394.5508,353.6641,384.5508,357.6641,394.5508,361.6641,390.5508,357.6641" style="stroke:#181818;stroke-width:1;stroke-linejoin:miter;stroke-miterlimit:10;"/><line style="stroke:#181818;stroke-width:1;" x1="372.5508" x2="372.5508" y1="197.3984" y2="217.3984"/><polygon fill="#181818" points="368.5508,207.3984,372.5508,217.3984,376.5508,207.3984,372.5508,211.3984" style="stroke:#181818;stroke-width:1;stroke-linejoin:miter;stroke-miterlimit:10;"/><line style="stroke:#181818;stroke-width:1;" x1="372.5508" x2="372.5508" y1="369.6641" y2="389.6641"/><polygon fill="#181818" points="368.5508,379.6641,372.5508,389.6641,376.5508,379.6641,372.5508,383.6641" style="stroke:#181818;stroke-width:1;stroke-linejoin:miter;stroke-miterlimit:10;"/><line style="stroke:#181818;stroke-width:1;" x1="204.873" x2="204.873" y1="614.1973" y2="634.1973"/><polygon fill="#181818" points="200.873,624.1973,204.873,634.1973,208.873,624.1973,204.873,628.1973" style="stroke:#181818;stroke-width:1;stroke-linejoin:miter;stroke-miterlimit:10;"/><line style="stroke:#181818;stroke-width:1;" x1="204.873" x2="204.873" y1="727.3301" y2="751.8076"/><polygon fill="#181818" points="200.873,741.8076,204.873,751.8076,208.873,741.8076,204.873,745.8076" style="stroke:#181818;stroke-width:1;stroke-linejoin:miter;stroke-miterlimit:10;"/><line style="stroke:#181818;stroke-width:1;" x1="243.2317" x2="279.8545" y1="715.3301" y2="715.3301"/><polygon fill="#181818" points="275.8545,758.874,279.8545,768.874,283.8545,758.874,279.8545,762.874" style="stroke:#181818;stroke-width:1;stroke-linejoin:miter;stroke-miterlimit:10;"/><line style="stroke:#181818;stroke-width:1;" x1="279.8545" x2="279.8545" y1="715.3301" y2="822.418"/><line style="stroke:#181818;stroke-width:1;" x1="279.8545" x2="216.873" y1="822.418" y2="822.418"/><polygon fill="#181818" points="226.873,818.418,216.873,822.418,226.873,826.418,222.873,822.418" style="stroke:#181818;stroke-width:1;stroke-linejoin:miter;stroke-miterlimit:10;"/><line style="stroke:#181818;stroke-width:1;" x1="204.873" x2="204.873" y1="785.9404" y2="810.418"/><polygon fill="#181818" points="200.873,800.418,204.873,810.418,208.873,800.418,204.873,804.418" style="stroke:#181818;stroke-width:1;stroke-linejoin:miter;stroke-miterlimit:10;"/><line style="stroke:#181818;stroke-width:1;" x1="204.873" x2="204.873" y1="668.3301" y2="703.3301"/><polygon fill="#181818" points="200.873,693.3301,204.873,703.3301,208.873,693.3301,204.873,697.3301" style="stroke:#181818;stroke-width:1;stroke-linejoin:miter;stroke-miterlimit:10;"/><line style="stroke:#181818;stroke-width:1;" x1="204.873" x2="204.873" y1="834.418" y2="854.418"/><polygon fill="#181818" points="200.873,844.418,204.873,854.418,208.873,844.418,204.873,848.418" style="stroke:#181818;stroke-width:1;stroke-linejoin:miter;stroke-miterlimit:10;"/><line style="stroke:#181818;stroke-width:1;" x1="204.873" x2="204.873" y1="991.1611" y2="1026.1611"/><polygon fill="#181818" points="200.873,1016.1611,204.873,1026.1611,208.873,1016.1611,204.873,1020.1611" style="stroke:#181818;stroke-width:1;stroke-linejoin:miter;stroke-miterlimit:10;"/><line style="stroke:#181818;stroke-width:1;" x1="204.873" x2="204.873" y1="932.5508" y2="957.0283"/><polygon fill="#181818" points="200.873,947.0283,204.873,957.0283,208.873,947.0283,204.873,951.0283" style="stroke:#181818;stroke-width:1;stroke-linejoin:miter;stroke-miterlimit:10;"/><line style="stroke:#181818;stroke-width:1;" x1="299.1072" x2="311.1072" y1="920.5508" y2="920.5508"/><polygon fill="#181818" points="307.1072,998.6611,311.1072,1008.6611,315.1072,998.6611,311.1072,1002.6611" style="stroke:#181818;stroke-width:1;stroke-linejoin:miter;stroke-miterlimit:10;"/><line style="stroke:#181818;stroke-width:1;" x1="311.1072" x2="311.1072" y1="920.5508" y2="1092.2939"/><line style="stroke:#181818;stroke-width:1;" x1="311.1072" x2="216.873" y1="1092.2939" y2="1092.2939"/><polygon fill="#181818" points="226.873,1088.2939,216.873,1092.2939,226.873,1096.2939,222.873,1092.2939" style="stroke:#181818;stroke-width:1;stroke-linejoin:miter;stroke-miterlimit:10;"/><line style="stroke:#181818;stroke-width:1;" x1="204.873" x2="204.873" y1="1060.2939" y2="1080.2939"/><polygon fill="#181818" points="200.873,1070.2939,204.873,1080.2939,208.873,1070.2939,204.873,1074.2939" style="stroke:#181818;stroke-width:1;stroke-linejoin:miter;stroke-miterlimit:10;"/><line style="stroke:#181818;stroke-width:1;" x1="204.873" x2="204.873" y1="888.5508" y2="908.5508"/><polygon fill="#181818" points="200.873,898.5508,204.873,908.5508,208.873,898.5508,204.873,902.5508" style="stroke:#181818;stroke-width:1;stroke-linejoin:miter;stroke-miterlimit:10;"/><line style="stroke:#181818;stroke-width:1;" x1="204.873" x2="204.873" y1="1104.2939" y2="1124.2939"/><polygon fill="#181818" points="200.873,1114.2939,204.873,1124.2939,208.873,1114.2939,204.873,1118.2939" style="stroke:#181818;stroke-width:1;stroke-linejoin:miter;stroke-miterlimit:10;"/><line style="stroke:#181818;stroke-width:1;" x1="204.873" x2="204.873" y1="547.9297" y2="580.0645"/><polygon fill="#181818" points="200.873,570.0645,204.873,580.0645,208.873,570.0645,204.873,574.0645" style="stroke:#181818;stroke-width:1;stroke-linejoin:miter;stroke-miterlimit:10;"/><line style="stroke:#181818;stroke-width:1;" x1="204.873" x2="204.873" y1="1158.4268" y2="1168.4268"/><line style="stroke:#181818;stroke-width:1;" x1="204.873" x2="377.7461" y1="1168.4268" y2="1168.4268"/><polygon fill="#181818" points="373.7461,863.0068,377.7461,853.0068,381.7461,863.0068,377.7461,859.0068" style="stroke:#181818;stroke-width:1;stroke-linejoin:miter;stroke-miterlimit:10;"/><line style="stroke:#181818;stroke-width:1;" x1="377.7461" x2="377.7461" y1="535.9297" y2="1168.4268"/><line style="stroke:#181818;stroke-width:1;" x1="377.7461" x2="273.4897" y1="535.9297" y2="535.9297"/><polygon fill="#181818" points="283.4897,531.9297,273.4897,535.9297,283.4897,539.9297,279.4897,535.9297" style="stroke:#181818;stroke-width:1;stroke-linejoin:miter;stroke-miterlimit:10;"/><line style="stroke:#181818;stroke-width:1;" x1="136.2563" x2="32" y1="535.9297" y2="535.9297"/><polygon fill="#181818" points="28,849.0068,32,859.0068,36,849.0068,32,853.0068" style="stroke:#181818;stroke-width:1;stroke-linejoin:miter;stroke-miterlimit:10;"/><line style="stroke:#181818;stroke-width:1;" x1="32" x2="32" y1="535.9297" y2="1180.4268"/><line style="stroke:#181818;stroke-width:1;" x1="32" x2="204.873" y1="1180.4268" y2="1180.4268"/><line style="stroke:#181818;stroke-width:1;" x1="204.873" x2="204.873" y1="1180.4268" y2="1200.4268"/><polygon fill="#181818" points="200.873,1190.4268,204.873,1200.4268,208.873,1190.4268,204.873,1194.4268" style="stroke:#181818;stroke-width:1;stroke-linejoin:miter;stroke-miterlimit:10;"/><line style="stroke:#181818;stroke-width:1;" x1="204.873" x2="204.873" y1="503.9297" y2="523.9297"/><polygon fill="#181818" points="200.873,513.9297,204.873,523.9297,208.873,513.9297,204.873,517.9297" style="stroke:#181818;stroke-width:1;stroke-linejoin:miter;stroke-miterlimit:10;"/><line style="stroke:#181818;stroke-width:1;" x1="571.4238" x2="571.4238" y1="834.418" y2="854.418"/><polygon fill="#181818" points="567.4238,844.418,571.4238,854.418,575.4238,844.418,571.4238,848.418" style="stroke:#181818;stroke-width:1;stroke-linejoin:miter;stroke-miterlimit:10;"/><line style="stroke:#181818;stroke-width:1;" x1="571.4238" x2="571.4238" y1="888.5508" y2="908.5508"/><polygon fill="#181818" points="567.4238,898.5508,571.4238,908.5508,575.4238,898.5508,571.4238,902.5508" style="stroke:#181818;stroke-width:1;stroke-linejoin:miter;stroke-miterlimit:10;"/><line style="stroke:#181818;stroke-width:1;" x1="571.4238" x2="571.4238" y1="763.3301" y2="800.2852"/><polygon fill="#181818" points="567.4238,790.2852,571.4238,800.2852,575.4238,790.2852,571.4238,794.2852" style="stroke:#181818;stroke-width:1;stroke-linejoin:miter;stroke-miterlimit:10;"/><line style="stroke:#181818;stroke-width:1;" x1="571.4238" x2="571.4238" y1="942.6836" y2="954.6836"/><line style="stroke:#181818;stroke-width:1;" x1="571.4238" x2="725.1016" y1="954.6836" y2="954.6836"/><polygon fill="#181818" points="721.1016,863.0068,725.1016,853.0068,729.1016,863.0068,725.1016,859.0068" style="stroke:#181818;stroke-width:1;stroke-linejoin:miter;stroke-miterlimit:10;"/><line style="stroke:#181818;stroke-width:1;" x1="725.1016" x2="725.1016" y1="751.3301" y2="954.6836"/><line style="stroke:#181818;stroke-width:1;" x1="725.1016" x2="607.8945" y1="751.3301" y2="751.3301"/><polygon fill="#181818" points="617.8945,747.3301,607.8945,751.3301,617.8945,755.3301,613.8945,751.3301" style="stroke:#181818;stroke-width:1;stroke-linejoin:miter;stroke-miterlimit:10;"/><line style="stroke:#181818;stroke-width:1;" x1="534.9531" x2="417.7461" y1="751.3301" y2="751.3301"/><polygon fill="#181818" points="413.7461,849.0068,417.7461,859.0068,421.7461,849.0068,417.7461,853.0068" style="stroke:#181818;stroke-width:1;stroke-linejoin:miter;stroke-miterlimit:10;"/><line style="stroke:#181818;stroke-width:1;" x1="417.7461" x2="417.7461" y1="751.3301" y2="966.6836"/><line style="stroke:#181818;stroke-width:1;" x1="417.7461" x2="571.4238" y1="966.6836" y2="966.6836"/><line style="stroke:#181818;stroke-width:1;" x1="571.4238" x2="571.4238" y1="966.6836" y2="1200.4268"/><polygon fill="#181818" points="567.4238,1190.4268,571.4238,1200.4268,575.4238,1190.4268,571.4238,1194.4268" style="stroke:#181818;stroke-width:1;stroke-linejoin:miter;stroke-miterlimit:10;"/><line style="stroke:#181818;stroke-width:1;" x1="571.4238" x2="571.4238" y1="704.3301" y2="739.3301"/><polygon fill="#181818" points="567.4238,729.3301,571.4238,739.3301,575.4238,729.3301,571.4238,733.3301" style="stroke:#181818;stroke-width:1;stroke-linejoin:miter;stroke-miterlimit:10;"/><line style="stroke:#181818;stroke-width:1;" x1="204.873" x2="204.873" y1="449.7969" y2="469.7969"/><polygon fill="#181818" points="200.873,459.7969,204.873,469.7969,208.873,459.7969,204.873,463.7969" style="stroke:#181818;stroke-width:1;stroke-linejoin:miter;stroke-miterlimit:10;"/><line style="stroke:#181818;stroke-width:1;" x1="571.4238" x2="571.4238" y1="449.7969" y2="670.1973"/><polygon fill="#181818" points="567.4238,660.1973,571.4238,670.1973,575.4238,660.1973,571.4238,664.1973" style="stroke:#181818;stroke-width:1;stroke-linejoin:miter;stroke-miterlimit:10;"/><line style="stroke:#181818;stroke-width:1;" x1="372.5508" x2="372.5508" y1="423.7969" y2="443.7969"/><polygon fill="#181818" points="368.5508,433.7969,372.5508,443.7969,376.5508,433.7969,372.5508,437.7969" style="stroke:#181818;stroke-width:1;stroke-linejoin:miter;stroke-miterlimit:10;"/><line style="stroke:#181818;stroke-width:1;" x1="372.5508" x2="372.5508" y1="1206.4268" y2="1226.4268"/><polygon fill="#181818" points="368.5508,1216.4268,372.5508,1226.4268,376.5508,1216.4268,372.5508,1220.4268" style="stroke:#181818;stroke-width:1;stroke-linejoin:miter;stroke-miterlimit:10;"/><line style="stroke:#181818;stroke-width:1;" x1="372.5508" x2="372.5508" y1="1260.5596" y2="1280.5596"/><polygon fill="#181818" points="368.5508,1270.5596,372.5508,1280.5596,376.5508,1270.5596,372.5508,1274.5596" style="stroke:#181818;stroke-width:1;stroke-linejoin:miter;stroke-miterlimit:10;"/><?plantuml-src ZLJ1SjCm5BpxA_P47QO9CnpjoJ2XfTCCdKve0fmL-TbvH94yajpKV3rFTWWjvS0bKVHMUhlxLWbxjgtowe2jqll6kyvMLyuuZ-YL3L8Y6xDmHbLKgyx43Jt5XU767gGCBH_aion4vMDMh9GFX2jtE2XRuOujOU6RBa53cHLhhImsoZSKSSsUT7I-nmFfpWT-9DENcNMHuBdPnG8tRAk0sfcAVC2HumvlPx56pOP2LjomaTwuKtqgRtjCoJvUOchIXdoprQQhI5RqDApAZ6laoyHOwIWDFqmGTsIHznGc6L2iT-u8lIEztxedjAptvCkXa9W7CaAPAWmTH10PKPjRDpb3we7JSuYjkCwAfUN8ol1FmdVdvLQid3F8jRCYNfpMFUQudvHPBULqtGdsfQEEnBEm3ud8SIVQaT-gy5itsn4ZMZYSbSW5AzUEc7ByVPLa8H71Egf8utPov9w4S2hyxSTmxg6pk11HNWcrW_JZU36U7RNz2zGQyM9QKLH2jnB_EMfNaSp6wVsyLkBRnP_-roSSFWbEqYF0-HplfU2vZfF_81NItAO_WhEdQvF-8OifXuksDJry9wcP9SmhzcjPImo3n1lHOVDrYJidzZsoGZjBrNoI3ibY6C0m9AX6iKsZ-jXjjpAL3QdpqMUp4ggMRVDgFWzoMuglv10hxnfF8U0T5aCoJoa9vGlii-ZAkH3n1cVllZ4TJ-XR4IsTFrE_TSgdqRPTHBxMtXbpYV7TNCfsQ2NFBvIDQKvs33aiLfxbbSj3L4OCQfsFa3-8DATIthnhVm40?></g></svg>