<svg xmlns="http://www.w3.org/2000/svg" xmlns:xlink="http://www.w3.org/1999/xlink" contentStyleType="text/css" data-diagram-type="ACTIVITY" height="1440px" preserveAspectRatio="none" style="width:762px;height:1440px;" version="1.1" viewBox="0 0 762 1440" width="762px" zoomAndPan="magnify"><?plantuml 1.2026.5?><defs/><g><ellipse cx="373.9395" cy="25" fill="#222222" rx="10" ry="10" style="stroke:#222222;stroke-width:1;"/><rect fill="#F1F1F1" height="34.1328" rx="12.5" ry="12.5" style="stroke:#181818;stroke-width:0.5;" width="210.1309" x="268.874" y="55"/><text fill="#000000" font-family="sans-serif" font-size="12" lengthAdjust="spacing" textLength="190.1309" x="278.874" y="76.6016">Parse Command Line Arguments</text><path d="M500.9854,113.5439 L500.9854,122.1992 L480.9854,126.1992 L500.9854,130.1992 L500.9854,138.8545 A0,0 0 0 0 500.9854,138.8545 L688.8271,138.8545 A0,0 0 0 0 688.8271,138.8545 L688.8271,123.5439 L678.8271,113.5439 L500.9854,113.5439 A0,0 0 0 0 500.9854,113.5439" fill="#FEFFDD" style="stroke:#181818;stroke-width:0.5;"/><path d="M678.8271,113.5439 L678.8271,123.5439 L688.8271,123.5439 L678.8271,113.5439" fill="#FEFFDD" style="stroke:#181818;stroke-width:0.5;"/><text fill="#000000" font-family="sans-serif" font-size="13" lengthAdjust="spacing" textLength="166.8418" x="506.9854" y="131.1123">Finds folders with *.tf files</text><rect fill="#F1F1F1" height="34.1328" rx="12.5" ry="12.5" style="stroke:#181818;stroke-width:0.5;" width="214.0918" x="266.8936" y="109.1328"/><text fill="#000000" font-family="sans-serif" font-size="12" lengthAdjust="spacing" textLength="194.0918" x="276.8936" y="130.7344">Scan Target Directory Recursively</text><rect fill="#F1F1F1" height="34.1328" rx="12.5" ry="12.5" style="stroke:#181818;stroke-width:0.5;" width="298.0977" x="224.8906" y="163.2656"/><text fill="#000000" font-family="sans-serif" font-size="12" lengthAdjust="spacing" textLength="278.0977" x="234.8906" y="184.8672">Filter Layers by -env, -layer, -include, -exclude</text><rect fill="#F1F1F1" height="34.1328" rx="12.5" ry="12.5" style="stroke:#181818;stroke-width:0.5;" width="268.877" x="239.501" y="217.3984"/><text fill="#000000" font-family="sans-serif" font-size="12" lengthAdjust="spacing" textLength="248.877" x="249.501" y="239">Resolve -engine (auto|terraform|opentofu)</text><polygon fill="#F1F1F1" points="343.8372,271.5313,404.0417,271.5313,416.0417,283.5313,404.0417,295.5313,343.8372,295.5313,331.8372,283.5313,343.8372,271.5313" style="stroke:#181818;stroke-width:0.5;stroke-linejoin:miter;stroke-miterlimit:10;"/><text fill="#000000" font-family="sans-serif" font-size="11" lengthAdjust="spacing" textLength="60.2046" x="343.8372" y="287.6885">Interactive?</text><text fill="#000000" font-family="sans-serif" font-size="11" lengthAdjust="spacing" textLength="17.4829" x="314.3542" y="281.2109">yes</text><text fill="#000000" font-family="sans-serif" font-size="11" lengthAdjust="spacing" textLength="13.5835" x="416.0417" y="281.2109">no</text><rect fill="#F1F1F1" height="34.1328" rx="12.5" ry="12.5" style="stroke:#181818;stroke-width:0.5;" width="149.6211" x="219.2168" y="305.5313"/><text fill="#000000" font-family="sans-serif" font-size="12" lengthAdjust="spacing" textLength="129.6211" x="229.2168" y="327.1328">Show checkbox picker</text><rect fill="#F1F1F1" height="34.1328" rx="12.5" ry="12.5" style="stroke:#181818;stroke-width:0.5;" width="136.1855" x="225.9346" y="359.6641"/><text fill="#000000" font-family="sans-serif" font-size="12" lengthAdjust="spacing" textLength="116.1855" x="235.9346" y="381.2656">Scan selected layers</text><rect fill="#F1F1F1" height="34.1328" rx="12.5" ry="12.5" style="stroke:#181818;stroke-width:0.5;" width="130.0273" x="388.8379" y="305.5313"/><text fill="#000000" font-family="sans-serif" font-size="12" lengthAdjust="spacing" textLength="110.0273" x="398.8379" y="327.1328">Scan filtered layers</text><polygon fill="#F1F1F1" points="373.9395,399.7969,385.9395,411.7969,373.9395,423.7969,361.9395,411.7969,373.9395,399.7969" style="stroke:#181818;stroke-width:0.5;stroke-linejoin:miter;stroke-miterlimit:10;"/><rect fill="#F1F1F1" height="34.1328" rx="12.5" ry="12.5" style="stroke:#181818;stroke-width:0.5;" width="251.5801" x="248.1494" y="443.7969"/><text fill="#000000" font-family="sans-serif" font-size="12" lengthAdjust="spacing" textLength="231.5801" x="258.1494" y="465.3984">Initialize Worker Pool (concurrency = N)</text><rect fill="#555555" height="6" rx="2.5" ry="2.5" style="stroke:#555555;stroke-width:1;" width="725.8789" x="16" y="497.9297"/><rect fill="#F1F1F1" height="34.1328" rx="12.5" ry="12.5" style="stroke:#181818;stroke-width:0.5;" width="139.8008" x="136.3613" y="523.9297"/><text fill="#000000" font-family="sans-serif" font-size="12" lengthAdjust="spacing" textLength="119.8008" x="146.3613" y="545.5313">Worker Queue Tasks</text><rect fill="#F1F1F1" height="34.1328" rx="12.5" ry="12.5" style="stroke:#181818;stroke-width:0.5;" width="76.2441" x="168.1396" y="634.1973"/><text fill="#000000" font-family="sans-serif" font-size="12" lengthAdjust="spacing" textLength="56.2441" x="178.1396" y="655.7988">Pop Layer</text><rect fill="#F1F1F1" height="34.1328" rx="12.5" ry="12.5" style="stroke:#181818;stroke-width:0.5;" width="110.8027" x="150.8604" y="688.3301"/><text fill="#000000" font-family="sans-serif" font-size="12" lengthAdjust="spacing" textLength="90.8027" x="160.8604" y="709.9316">Check Init State</text><rect fill="#F1F1F1" height="34.1328" rx="12.5" ry="12.5" style="stroke:#181818;stroke-width:0.5;" width="132.7402" x="139.8916" y="790.9404"/><text fill="#000000" font-family="sans-serif" font-size="12" lengthAdjust="spacing" textLength="112.7402" x="149.8916" y="812.542">Run '&lt;engine&gt; init'</text><polygon fill="#F1F1F1" points="179.9031,742.4629,232.6204,742.4629,244.6204,754.4629,232.6204,766.4629,179.9031,766.4629,167.9031,754.4629,179.9031,742.4629" style="stroke:#181818;stroke-width:0.5;stroke-linejoin:miter;stroke-miterlimit:10;"/><text fill="#000000" font-family="sans-serif" font-size="11" lengthAdjust="spacing" textLength="17.4829" x="210.2617" y="777.0977">yes</text><text fill="#000000" font-family="sans-serif" font-size="11" lengthAdjust="spacing" textLength="52.7173" x="179.9031" y="758.6201">Need Init?</text><polygon fill="#F1F1F1" points="206.2617,849.5508,218.2617,861.5508,206.2617,873.5508,194.2617,861.5508,206.2617,849.5508" style="stroke:#181818;stroke-width:0.5;stroke-linejoin:miter;stroke-miterlimit:10;"/><rect fill="#F1F1F1" height="34.1328" rx="12.5" ry="12.5" style="stroke:#181818;stroke-width:0.5;" width="324.5234" x="44" y="908.5508"/><text fill="#000000" font-family="sans-serif" font-size="12" lengthAdjust="spacing" textLength="304.5234" x="54" y="930.1523">Run '&lt;engine&gt; plan -detailed-exitcode -lock=false'</text><rect fill="#F1F1F1" height="34.1328" rx="12.5" ry="12.5" style="stroke:#181818;stroke-width:0.5;" width="179.375" x="116.5742" y="1026.1611"/><text fill="#000000" font-family="sans-serif" font-size="12" lengthAdjust="spacing" textLength="159.375" x="126.5742" y="1047.7627">Run '&lt;engine&gt; show -json'</text><rect fill="#F1F1F1" height="34.1328" rx="12.5" ry="12.5" style="stroke:#181818;stroke-width:0.5;" width="273.834" x="69.3447" y="1090.3828"/><text fill="#000000" font-family="sans-serif" font-size="12" lengthAdjust="spacing" textLength="253.834" x="79.3447" y="1111.9844">Classify resource_drift vs resource_changes</text><rect fill="#F1F1F1" height="34.1328" rx="12.5" ry="12.5" style="stroke:#181818;stroke-width:0.5;" width="182.9082" x="114.8076" y="1144.5156"/><text fill="#000000" font-family="sans-serif" font-size="12" lengthAdjust="spacing" textLength="162.9082" x="124.8076" y="1166.1172">Apply -mode and rules.json</text><polygon fill="#F1F1F1" points="113.1001,977.6836,299.4233,977.6836,311.4233,989.6836,299.4233,1001.6836,113.1001,1001.6836,101.1001,989.6836,113.1001,977.6836" style="stroke:#181818;stroke-width:0.5;stroke-linejoin:miter;stroke-miterlimit:10;"/><text fill="#000000" font-family="sans-serif" font-size="11" lengthAdjust="spacing" textLength="17.4829" x="210.2617" y="1012.3184">yes</text><text fill="#000000" font-family="sans-serif" font-size="11" lengthAdjust="spacing" textLength="186.3232" x="113.1001" y="993.8408">Detailed Exit Code == 2 (Changes)</text><polygon fill="#F1F1F1" points="206.2617,1198.6484,218.2617,1210.6484,206.2617,1222.6484,194.2617,1210.6484,206.2617,1198.6484" style="stroke:#181818;stroke-width:0.5;stroke-linejoin:miter;stroke-miterlimit:10;"/><rect fill="#F1F1F1" height="34.1328" rx="12.5" ry="12.5" style="stroke:#181818;stroke-width:0.5;" width="199.707" x="106.4082" y="1242.6484"/><text fill="#000000" font-family="sans-serif" font-size="12" lengthAdjust="spacing" textLength="179.707" x="116.4082" y="1264.25">Send ScanResult to report path</text><polygon fill="#F1F1F1" points="149.645,578.0625,262.8784,578.0625,274.8784,590.0625,262.8784,602.0625,149.645,602.0625,137.645,590.0625,149.645,578.0625" style="stroke:#181818;stroke-width:0.5;stroke-linejoin:miter;stroke-miterlimit:10;"/><text fill="#000000" font-family="sans-serif" font-size="11" lengthAdjust="spacing" textLength="17.4829" x="210.2617" y="612.6973">yes</text><text fill="#000000" font-family="sans-serif" font-size="11" lengthAdjust="spacing" textLength="113.2334" x="149.645" y="594.2197">Has Layers in Queue?</text><rect fill="#F1F1F1" height="34.1328" rx="12.5" ry="12.5" style="stroke:#181818;stroke-width:0.5;" width="139.9531" x="504.2246" y="743.8965"/><text fill="#000000" font-family="sans-serif" font-size="12" lengthAdjust="spacing" textLength="119.9531" x="514.2246" y="765.498">Bubble Tea TUI Loop</text><rect fill="#F1F1F1" height="34.1328" rx="12.5" ry="12.5" style="stroke:#181818;stroke-width:0.5;" width="241.6895" x="453.3564" y="873.9844"/><text fill="#000000" font-family="sans-serif" font-size="12" lengthAdjust="spacing" textLength="221.6895" x="463.3564" y="895.5859">Render Live Progress / Active Workers</text><rect fill="#F1F1F1" height="34.1328" rx="12.5" ry="12.5" style="stroke:#181818;stroke-width:0.5;" width="244.5195" x="451.9414" y="943.1172"/><text fill="#000000" font-family="sans-serif" font-size="12" lengthAdjust="spacing" textLength="224.5195" x="461.9414" y="964.7188">Render Interactive List &amp; Detailed View</text><rect fill="#F1F1F1" height="34.1328" rx="12.5" ry="12.5" style="stroke:#181818;stroke-width:0.5;" width="283.3555" x="432.5234" y="1012.25"/><text fill="#000000" font-family="sans-serif" font-size="12" lengthAdjust="spacing" textLength="263.3555" x="442.5234" y="1033.8516">Handle Keyboard Input (Scroll, Filter, Inspect)</text><polygon fill="#F1F1F1" points="549.7305,813.0293,598.6719,813.0293,610.6719,825.0293,598.6719,837.0293,549.7305,837.0293,537.7305,825.0293,549.7305,813.0293" style="stroke:#181818;stroke-width:0.5;stroke-linejoin:miter;stroke-miterlimit:10;"/><text fill="#000000" font-family="sans-serif" font-size="11" lengthAdjust="spacing" textLength="17.4829" x="578.2012" y="847.6641">yes</text><text fill="#000000" font-family="sans-serif" font-size="11" lengthAdjust="spacing" textLength="48.9414" x="549.7305" y="829.1865">Running?</text><text fill="#000000" font-family="sans-serif" font-size="11" lengthAdjust="spacing" textLength="13.5835" x="524.147" y="822.709">no</text><rect fill="#555555" height="6" rx="2.5" ry="2.5" style="stroke:#555555;stroke-width:1;" width="725.8789" x="16" y="1318.7813"/><rect fill="#F1F1F1" height="34.1328" rx="12.5" ry="12.5" style="stroke:#181818;stroke-width:0.5;" width="162.2773" x="292.8008" y="1344.7813"/><text fill="#000000" font-family="sans-serif" font-size="12" lengthAdjust="spacing" textLength="142.2773" x="302.8008" y="1366.3828">Print Final Report or Exit</text><ellipse cx="373.9395" cy="1409.9141" fill="none" rx="11" ry="11" style="stroke:#222222;stroke-width:1;"/><ellipse cx="373.9395" cy="1409.9141" fill="#222222" rx="6" ry="6" style="stroke:#222222;stroke-width:1;"/><line style="stroke:#181818;stroke-width:1;" x1="373.9395" x2="373.9395" y1="35" y2="55"/><polygon fill="#181818" points="369.9395,45,373.9395,55,377.9395,45,373.9395,49" style="stroke:#181818;stroke-width:1;stroke-linejoin:miter;stroke-miterlimit:10;"/><line style="stroke:#181818;stroke-width:1;" x1="373.9395" x2="373.9395" y1="89.1328" y2="109.1328"/><polygon fill="#181818" points="369.9395,99.1328,373.9395,109.1328,377.9395,99.1328,373.9395,103.1328" style="stroke:#181818;stroke-width:1;stroke-linejoin:miter;stroke-miterlimit:10;"/><line style="stroke:#181818;stroke-width:1;" x1="373.9395" x2="373.9395" y1="143.2656" y2="163.2656"/><polygon fill="#181818" points="369.9395,153.2656,373.9395,163.2656,377.9395,153.2656,373.9395,157.2656" style="stroke:#181818;stroke-width:1;stroke-linejoin:miter;stroke-miterlimit:10;"/><line style="stroke:#181818;stroke-width:1;" x1="373.9395" x2="373.9395" y1="197.3984" y2="217.3984"/><polygon fill="#181818" points="369.9395,207.3984,373.9395,217.3984,377.9395,207.3984,373.9395,211.3984" style="stroke:#181818;stroke-width:1;stroke-linejoin:miter;stroke-miterlimit:10;"/><line style="stroke:#181818;stroke-width:1;" x1="294.0273" x2="294.0273" y1="339.6641" y2="359.6641"/><polygon fill="#181818" points="290.0273,349.6641,294.0273,359.6641,298.0273,349.6641,294.0273,353.6641" style="stroke:#181818;stroke-width:1;stroke-linejoin:miter;stroke-miterlimit:10;"/><line style="stroke:#181818;stroke-width:1;" x1="331.8372" x2="294.0273" y1="283.5313" y2="283.5313"/><line style="stroke:#181818;stroke-width:1;" x1="294.0273" x2="294.0273" y1="283.5313" y2="305.5313"/><polygon fill="#181818" points="290.0273,295.5313,294.0273,305.5313,298.0273,295.5313,294.0273,299.5313" style="stroke:#181818;stroke-width:1;stroke-linejoin:miter;stroke-miterlimit:10;"/><line style="stroke:#181818;stroke-width:1;" x1="416.0417" x2="453.8516" y1="283.5313" y2="283.5313"/><line style="stroke:#181818;stroke-width:1;" x1="453.8516" x2="453.8516" y1="283.5313" y2="305.5313"/><polygon fill="#181818" points="449.8516,295.5313,453.8516,305.5313,457.8516,295.5313,453.8516,299.5313" style="stroke:#181818;stroke-width:1;stroke-linejoin:miter;stroke-miterlimit:10;"/><line style="stroke:#181818;stroke-width:1;" x1="294.0273" x2="294.0273" y1="393.7969" y2="411.7969"/><line style="stroke:#181818;stroke-width:1;" x1="294.0273" x2="361.9395" y1="411.7969" y2="411.7969"/><polygon fill="#181818" points="351.9395,407.7969,361.9395,411.7969,351.9395,415.7969,355.9395,411.7969" style="stroke:#181818;stroke-width:1;stroke-linejoin:miter;stroke-miterlimit:10;"/><line style="stroke:#181818;stroke-width:1;" x1="453.8516" x2="453.8516" y1="339.6641" y2="411.7969"/><line style="stroke:#181818;stroke-width:1;" x1="453.8516" x2="385.9395" y1="411.7969" y2="411.7969"/><polygon fill="#181818" points="395.9395,407.7969,385.9395,411.7969,395.9395,415.7969,391.9395,411.7969" style="stroke:#181818;stroke-width:1;stroke-linejoin:miter;stroke-miterlimit:10;"/><line style="stroke:#181818;stroke-width:1;" x1="373.9395" x2="373.9395" y1="251.5313" y2="271.5313"/><polygon fill="#181818" points="369.9395,261.5313,373.9395,271.5313,377.9395,261.5313,373.9395,265.5313" style="stroke:#181818;stroke-width:1;stroke-linejoin:miter;stroke-miterlimit:10;"/><line style="stroke:#181818;stroke-width:1;" x1="373.9395" x2="373.9395" y1="423.7969" y2="443.7969"/><polygon fill="#181818" points="369.9395,433.7969,373.9395,443.7969,377.9395,433.7969,373.9395,437.7969" style="stroke:#181818;stroke-width:1;stroke-linejoin:miter;stroke-miterlimit:10;"/><line style="stroke:#181818;stroke-width:1;" x1="206.2617" x2="206.2617" y1="668.3301" y2="688.3301"/><polygon fill="#181818" points="202.2617,678.3301,206.2617,688.3301,210.2617,678.3301,206.2617,682.3301" style="stroke:#181818;stroke-width:1;stroke-linejoin:miter;stroke-miterlimit:10;"/><line style="stroke:#181818;stroke-width:1;" x1="206.2617" x2="206.2617" y1="766.4629" y2="790.9404"/><polygon fill="#181818" points="202.2617,780.9404,206.2617,790.9404,210.2617,780.9404,206.2617,784.9404" style="stroke:#181818;stroke-width:1;stroke-linejoin:miter;stroke-miterlimit:10;"/><line style="stroke:#181818;stroke-width:1;" x1="244.6204" x2="282.6318" y1="754.4629" y2="754.4629"/><polygon fill="#181818" points="278.6318,798.0068,282.6318,808.0068,286.6318,798.0068,282.6318,802.0068" style="stroke:#181818;stroke-width:1;stroke-linejoin:miter;stroke-miterlimit:10;"/><line style="stroke:#181818;stroke-width:1;" x1="282.6318" x2="282.6318" y1="754.4629" y2="861.5508"/><line style="stroke:#181818;stroke-width:1;" x1="282.6318" x2="218.2617" y1="861.5508" y2="861.5508"/><polygon fill="#181818" points="228.2617,857.5508,218.2617,861.5508,228.2617,865.5508,224.2617,861.5508" style="stroke:#181818;stroke-width:1;stroke-linejoin:miter;stroke-miterlimit:10;"/><line style="stroke:#181818;stroke-width:1;" x1="206.2617" x2="206.2617" y1="825.0732" y2="849.5508"/><polygon fill="#181818" points="202.2617,839.5508,206.2617,849.5508,210.2617,839.5508,206.2617,843.5508" style="stroke:#181818;stroke-width:1;stroke-linejoin:miter;stroke-miterlimit:10;"/><line style="stroke:#181818;stroke-width:1;" x1="206.2617" x2="206.2617" y1="722.4629" y2="742.4629"/><polygon fill="#181818" points="202.2617,732.4629,206.2617,742.4629,210.2617,732.4629,206.2617,736.4629" style="stroke:#181818;stroke-width:1;stroke-linejoin:miter;stroke-miterlimit:10;"/><line style="stroke:#181818;stroke-width:1;" x1="206.2617" x2="206.2617" y1="873.5508" y2="908.5508"/><polygon fill="#181818" points="202.2617,898.5508,206.2617,908.5508,210.2617,898.5508,206.2617,902.5508" style="stroke:#181818;stroke-width:1;stroke-linejoin:miter;stroke-miterlimit:10;"/><line style="stroke:#181818;stroke-width:1;" x1="206.2617" x2="206.2617" y1="1060.2939" y2="1090.3828"/><polygon fill="#181818" points="202.2617,1080.3828,206.2617,1090.3828,210.2617,1080.3828,206.2617,1084.3828" style="stroke:#181818;stroke-width:1;stroke-linejoin:miter;stroke-miterlimit:10;"/><line style="stroke:#181818;stroke-width:1;" x1="206.2617" x2="206.2617" y1="1124.5156" y2="1144.5156"/><polygon fill="#181818" points="202.2617,1134.5156,206.2617,1144.5156,210.2617,1134.5156,206.2617,1138.5156" style="stroke:#181818;stroke-width:1;stroke-linejoin:miter;stroke-miterlimit:10;"/><line style="stroke:#181818;stroke-width:1;" x1="206.2617" x2="206.2617" y1="1001.6836" y2="1026.1611"/><polygon fill="#181818" points="202.2617,1016.1611,206.2617,1026.1611,210.2617,1016.1611,206.2617,1020.1611" style="stroke:#181818;stroke-width:1;stroke-linejoin:miter;stroke-miterlimit:10;"/><line style="stroke:#181818;stroke-width:1;" x1="311.4233" x2="353.1787" y1="989.6836" y2="989.6836"/><polygon fill="#181818" points="349.1787,1097.4492,353.1787,1107.4492,357.1787,1097.4492,353.1787,1101.4492" style="stroke:#181818;stroke-width:1;stroke-linejoin:miter;stroke-miterlimit:10;"/><line style="stroke:#181818;stroke-width:1;" x1="353.1787" x2="353.1787" y1="989.6836" y2="1210.6484"/><line style="stroke:#181818;stroke-width:1;" x1="353.1787" x2="218.2617" y1="1210.6484" y2="1210.6484"/><polygon fill="#181818" points="228.2617,1206.6484,218.2617,1210.6484,228.2617,1214.6484,224.2617,1210.6484" style="stroke:#181818;stroke-width:1;stroke-linejoin:miter;stroke-miterlimit:10;"/><line style="stroke:#181818;stroke-width:1;" x1="206.2617" x2="206.2617" y1="1178.6484" y2="1198.6484"/><polygon fill="#181818" points="202.2617,1188.6484,206.2617,1198.6484,210.2617,1188.6484,206.2617,1192.6484" style="stroke:#181818;stroke-width:1;stroke-linejoin:miter;stroke-miterlimit:10;"/><line style="stroke:#181818;stroke-width:1;" x1="206.2617" x2="206.2617" y1="942.6836" y2="977.6836"/><polygon fill="#181818" points="202.2617,967.6836,206.2617,977.6836,210.2617,967.6836,206.2617,971.6836" style="stroke:#181818;stroke-width:1;stroke-linejoin:miter;stroke-miterlimit:10;"/><line style="stroke:#181818;stroke-width:1;" x1="206.2617" x2="206.2617" y1="1222.6484" y2="1242.6484"/><polygon fill="#181818" points="202.2617,1232.6484,206.2617,1242.6484,210.2617,1232.6484,206.2617,1236.6484" style="stroke:#181818;stroke-width:1;stroke-linejoin:miter;stroke-miterlimit:10;"/><line style="stroke:#181818;stroke-width:1;" x1="206.2617" x2="206.2617" y1="602.0625" y2="634.1973"/><polygon fill="#181818" points="202.2617,624.1973,206.2617,634.1973,210.2617,624.1973,206.2617,628.1973" style="stroke:#181818;stroke-width:1;stroke-linejoin:miter;stroke-miterlimit:10;"/><line style="stroke:#181818;stroke-width:1;" x1="206.2617" x2="206.2617" y1="1276.7813" y2="1286.7813"/><line style="stroke:#181818;stroke-width:1;" x1="206.2617" x2="380.5234" y1="1286.7813" y2="1286.7813"/><polygon fill="#181818" points="376.5234,951.7061,380.5234,941.7061,384.5234,951.7061,380.5234,947.7061" style="stroke:#181818;stroke-width:1;stroke-linejoin:miter;stroke-miterlimit:10;"/><line style="stroke:#181818;stroke-width:1;" x1="380.5234" x2="380.5234" y1="590.0625" y2="1286.7813"/><line style="stroke:#181818;stroke-width:1;" x1="380.5234" x2="274.8784" y1="590.0625" y2="590.0625"/><polygon fill="#181818" points="284.8784,586.0625,274.8784,590.0625,284.8784,594.0625,280.8784,590.0625" style="stroke:#181818;stroke-width:1;stroke-linejoin:miter;stroke-miterlimit:10;"/><line style="stroke:#181818;stroke-width:1;" x1="137.645" x2="32" y1="590.0625" y2="590.0625"/><polygon fill="#181818" points="28,937.7061,32,947.7061,36,937.7061,32,941.7061" style="stroke:#181818;stroke-width:1;stroke-linejoin:miter;stroke-miterlimit:10;"/><line style="stroke:#181818;stroke-width:1;" x1="32" x2="32" y1="590.0625" y2="1298.7813"/><line style="stroke:#181818;stroke-width:1;" x1="32" x2="206.2617" y1="1298.7813" y2="1298.7813"/><line style="stroke:#181818;stroke-width:1;" x1="206.2617" x2="206.2617" y1="1298.7813" y2="1318.7813"/><polygon fill="#181818" points="202.2617,1308.7813,206.2617,1318.7813,210.2617,1308.7813,206.2617,1312.7813" style="stroke:#181818;stroke-width:1;stroke-linejoin:miter;stroke-miterlimit:10;"/><line style="stroke:#181818;stroke-width:1;" x1="206.2617" x2="206.2617" y1="558.0625" y2="578.0625"/><polygon fill="#181818" points="202.2617,568.0625,206.2617,578.0625,210.2617,568.0625,206.2617,572.0625" style="stroke:#181818;stroke-width:1;stroke-linejoin:miter;stroke-miterlimit:10;"/><line style="stroke:#181818;stroke-width:1;" x1="574.2012" x2="574.2012" y1="908.1172" y2="943.1172"/><polygon fill="#181818" points="570.2012,933.1172,574.2012,943.1172,578.2012,933.1172,574.2012,937.1172" style="stroke:#181818;stroke-width:1;stroke-linejoin:miter;stroke-miterlimit:10;"/><line style="stroke:#181818;stroke-width:1;" x1="574.2012" x2="574.2012" y1="977.25" y2="1012.25"/><polygon fill="#181818" points="570.2012,1002.25,574.2012,1012.25,578.2012,1002.25,574.2012,1006.25" style="stroke:#181818;stroke-width:1;stroke-linejoin:miter;stroke-miterlimit:10;"/><line style="stroke:#181818;stroke-width:1;" x1="574.2012" x2="574.2012" y1="837.0293" y2="873.9844"/><polygon fill="#181818" points="570.2012,863.9844,574.2012,873.9844,578.2012,863.9844,574.2012,867.9844" style="stroke:#181818;stroke-width:1;stroke-linejoin:miter;stroke-miterlimit:10;"/><line style="stroke:#181818;stroke-width:1;" x1="574.2012" x2="574.2012" y1="1046.3828" y2="1058.3828"/><line style="stroke:#181818;stroke-width:1;" x1="574.2012" x2="727.8789" y1="1058.3828" y2="1058.3828"/><polygon fill="#181818" points="723.8789,951.7061,727.8789,941.7061,731.8789,951.7061,727.8789,947.7061" style="stroke:#181818;stroke-width:1;stroke-linejoin:miter;stroke-miterlimit:10;"/><line style="stroke:#181818;stroke-width:1;" x1="727.8789" x2="727.8789" y1="825.0293" y2="1058.3828"/><line style="stroke:#181818;stroke-width:1;" x1="727.8789" x2="610.6719" y1="825.0293" y2="825.0293"/><polygon fill="#181818" points="620.6719,821.0293,610.6719,825.0293,620.6719,829.0293,616.6719,825.0293" style="stroke:#181818;stroke-width:1;stroke-linejoin:miter;stroke-miterlimit:10;"/><line style="stroke:#181818;stroke-width:1;" x1="537.7305" x2="420.5234" y1="825.0293" y2="825.0293"/><polygon fill="#181818" points="416.5234,937.7061,420.5234,947.7061,424.5234,937.7061,420.5234,941.7061" style="stroke:#181818;stroke-width:1;stroke-linejoin:miter;stroke-miterlimit:10;"/><line style="stroke:#181818;stroke-width:1;" x1="420.5234" x2="420.5234" y1="825.0293" y2="1070.3828"/><line style="stroke:#181818;stroke-width:1;" x1="420.5234" x2="574.2012" y1="1070.3828" y2="1070.3828"/><line style="stroke:#181818;stroke-width:1;" x1="574.2012" x2="574.2012" y1="1070.3828" y2="1318.7813"/><polygon fill="#181818" points="570.2012,1308.7813,574.2012,1318.7813,578.2012,1308.7813,574.2012,1312.7813" style="stroke:#181818;stroke-width:1;stroke-linejoin:miter;stroke-miterlimit:10;"/><line style="stroke:#181818;stroke-width:1;" x1="574.2012" x2="574.2012" y1="778.0293" y2="813.0293"/><polygon fill="#181818" points="570.2012,803.0293,574.2012,813.0293,578.2012,803.0293,574.2012,807.0293" style="stroke:#181818;stroke-width:1;stroke-linejoin:miter;stroke-miterlimit:10;"/><line style="stroke:#181818;stroke-width:1;" x1="206.2617" x2="206.2617" y1="503.9297" y2="523.9297"/><polygon fill="#181818" points="202.2617,513.9297,206.2617,523.9297,210.2617,513.9297,206.2617,517.9297" style="stroke:#181818;stroke-width:1;stroke-linejoin:miter;stroke-miterlimit:10;"/><line style="stroke:#181818;stroke-width:1;" x1="574.2012" x2="574.2012" y1="503.9297" y2="743.8965"/><polygon fill="#181818" points="570.2012,733.8965,574.2012,743.8965,578.2012,733.8965,574.2012,737.8965" style="stroke:#181818;stroke-width:1;stroke-linejoin:miter;stroke-miterlimit:10;"/><line style="stroke:#181818;stroke-width:1;" x1="373.9395" x2="373.9395" y1="477.9297" y2="497.9297"/><polygon fill="#181818" points="369.9395,487.9297,373.9395,497.9297,377.9395,487.9297,373.9395,491.9297" style="stroke:#181818;stroke-width:1;stroke-linejoin:miter;stroke-miterlimit:10;"/><line style="stroke:#181818;stroke-width:1;" x1="373.9395" x2="373.9395" y1="1324.7813" y2="1344.7813"/><polygon fill="#181818" points="369.9395,1334.7813,373.9395,1344.7813,377.9395,1334.7813,373.9395,1338.7813" style="stroke:#181818;stroke-width:1;stroke-linejoin:miter;stroke-miterlimit:10;"/><line style="stroke:#181818;stroke-width:1;" x1="373.9395" x2="373.9395" y1="1378.9141" y2="1398.9141"/><polygon fill="#181818" points="369.9395,1388.9141,373.9395,1398.9141,377.9395,1388.9141,373.9395,1392.9141" style="stroke:#181818;stroke-width:1;stroke-linejoin:miter;stroke-miterlimit:10;"/><?plantuml-src XLJ1RXCn4BtlLyo9Rb1J98u90OMKgXKL2ac08tAyixjc7SzgR2TTr8zdl9kc4KNYadZjv_5xRvxj6-DQnMe7MwMRYYcwOa6M608hvsK9NSZy2LLWgQ8D6tm8SsigjvDbqFA3d6K-A0xPPAdO8onejrEkW7lZ4EPSnGJrqsoorih1Hd650QuDemx47QnGH_PcZxQRPeu20fkg3XEuCQxmK98ja3qSJAZXzLKeeJGMVJQvCLREXdlLfULj1sDq-qiOspGX_yPf6mkK4Jxq8s6mGazsZmbQ9NQvYe4UfGohadZtIArGfJAEffaf8RzBwfGEGkx324AD3l8E_IW3cAnhEe2kKJTRUe3Mw0PvsYyabHwjoCC2UZOY7gquapiQdI1bp_ySuWfJPfCxPu9Hrln6-44iLM59P27NvCGewOhkO0PVXA9GRbAv8-nhn8ZYhszy8dAenIV8RvL_yiYu0IDQZ3yfaG9BQWVCTFXU95cGYC0wg833T7Ba2mhXjF2t7_s-LNHmyMxmzhqSPyB5i7MGzWzCQyM9SO512Tb2EcM2fa8QP4atirA9QnVFfryVSV19S98p0Svcy1RoHQrS9KJ-Jygdjer_UNB7kackLTwRiWEMU4JM-BDWKmRO--SPFPnmsZDlMokHsoKEAUmS9PHNgUuBnMiPGsgvf4zk40IIiYrnW5Q5Ei45q7UhxoYeIXcN-lenRhVImWqgs7oxWtkYzgoneiiPLxrevaggfNiXeOKbKoKIFBo1UH_ZOwIEEfwmPpcNVJx0ApXP_TtWuOY-5Q5oycVijgGuvQ2D0VArPhBs4eOBUIdJlfNmZywL3T5FHlIXdIpPoFCXDrnPUG1wC-JbIMsTocD2xHy0?></g></svg>