<svg xmlns="http://www.w3.org/2000/svg" xmlns:xlink="http://www.w3.org/1999/xlink" contentStyleType="text/css" data-diagram-type="ACTIVITY" height="1376px" preserveAspectRatio="none" style="width:762px;height:1376px;" version="1.1" viewBox="0 0 762 1376" width="762px" zoomAndPan="magnify"><?plantuml 1.2026.5?><defs/><g><ellipse cx="373.9395" cy="25" fill="#222222" rx="10" ry="10" style="stroke:#222222;stroke-width:1;"/><rect fill="#F1F1F1" height="34.1328" rx="12.5" ry="12.5" style="stroke:#181818;stroke-width:0.5;" width="210.1309" x="268.874" y="55"/><text fill="#000000" font-family="sans-serif" font-size="12" lengthAdjust="spacing" textLength="190.1309" x="278.874" y="76.6016">Parse Command Line Arguments</text><path d="M500.9854,113.5439 L500.9854,122.1992 L480.9854,126.1992 L500.9854,130.1992 L500.9854,138.8545 A0,0 0 0 0 500.9854,138.8545 L688.8271,138.8545 A0,0 0 0 0 688.8271,138.8545 L688.8271,123.5439 L678.8271,113.5439 L500.9854,113.5439 A0,0 0 0 0 500.9854,113.5439" fill="#FEFFDD" style="stroke:#181818;stroke-width:0.5;"/><path d="M678.8271,113.5439 L678.8271,123.5439 L688.8271,123.5439 L678.8271,113.5439" fill="#FEFFDD" style="stroke:#181818;stroke-width:0.5;"/><text fill="#000000" font-family="sans-serif" font-size="13" lengthAdjust="spacing" textLength="166.8418" x="506.9854" y="131.1123">Finds folders with *.tf files</text><rect fill="#F1F1F1" height="34.1328" rx="12.5" ry="12.5" style="stroke:#181818;stroke-width:0.5;" width="214.0918" x="266.8936" y="109.1328"/><text fill="#000000" font-family="sans-serif" font-size="12" lengthAdjust="spacing" textLength="194.0918" x="276.8936" y="130.7344">Scan Target Directory Recursively</text><rect fill="#F1F1F1" height="34.1328" rx="12.5" ry="12.5" style="stroke:#181818;stroke-width:0.5;" width="298.0977" x="224.8906" y="163.2656"/><text fill="#000000" font-family="sans-serif" font-size="12" lengthAdjust="spacing" textLength="278.0977" x="234.8906" y="184.8672">Filter Layers by -env, -layer, -include, -exclude</text><rect fill="#F1F1F1" height="34.1328" rx="12.5" ry="12.5" style="stroke:#181818;stroke-width:0.5;" width="268.877" x="239.501" y="217.3984"/><text fill="#000000" font-family="sans-serif" font-size="12" lengthAdjust="spacing" textLength="248.877" x="249.501" y="239">Resolve -engine (auto|terraform|opentofu)</text><polygon fill="#F1F1F1" points="343.8372,271.5313,404.0417,271.5313,416.0417,283.5313,404.0417,295.5313,343.8372,295.5313,331.8372,283.5313,343.8372,271.5313" style="stroke:#181818;stroke-width:0.5;stroke-linejoin:miter;stroke-miterlimit:10;"/><text fill="#000000" font-family="sans-serif" font-size="11" lengthAdjust="spacing" textLength="60.2046" x="343.8372" y="287.6885">Interactive?</text><text fill="#000000" font-family="sans-serif" font-size="11" lengthAdjust="spacing" textLength="17.4829" x="314.3542" y="281.2109">yes</text><text fill="#000000" font-family="sans-serif" font-size="11" lengthAdjust="spacing" textLength="13.5835" x="416.0417" y="281.2109">no</text><rect fill="#F1F1F1" height="34.1328" rx="12.5" ry="12.5" style="stroke:#181818;stroke-width:0.5;" width="149.6211" x="219.2168" y="305.5313"/><text fill="#000000" font-family="sans-serif" font-size="12" lengthAdjust="spacing" textLength="129.6211" x="229.2168" y="327.1328">Show checkbox picker</text><rect fill="#F1F1F1" height="34.1328" rx="12.5" ry="12.5" style="stroke:#181818;stroke-width:0.5;" width="136.1855" x="225.9346" y="359.6641"/><text fill="#000000" font-family="sans-serif" font-size="12" lengthAdjust="spacing" textLength="116.1855" x="235.9346" y="381.2656">Scan selected layers</text><rect fill="#F1F1F1" height="34.1328" rx="12.5" ry="12.5" style="stroke:#181818;stroke-width:0.5;" width="130.0273" x="388.8379" y="305.5313"/><text fill="#000000" font-family="sans-serif" font-size="12" lengthAdjust="spacing" textLength="110.0273" x="398.8379" y="327.1328">Scan filtered layers</text><polygon fill="#F1F1F1" points="373.9395,399.7969,385.9395,411.7969,373.9395,423.7969,361.9395,411.7969,373.9395,399.7969" style="stroke:#181818;stroke-width:0.5;stroke-linejoin:miter;stroke-miterlimit:10;"/><rect fill="#F1F1F1" height="34.1328" rx="12.5" ry="12.5" style="stroke:#181818;stroke-width:0.5;" width="251.5801" x="248.1494" y="443.7969"/><text fill="#000000" font-family="sans-serif" font-size="12" lengthAdjust="spacing" textLength="231.5801" x="258.1494" y="465.3984">Initialize Worker Pool (concurrency = N)</text><rect fill="#555555" height="6" rx="2.5" ry="2.5" style="stroke:#555555;stroke-width:1;" width="725.8789" x="16" y="497.9297"/><rect fill="#F1F1F1" height="34.1328" rx="12.5" ry="12.5" style="stroke:#181818;stroke-width:0.5;" width="139.8008" x="136.3613" y="523.9297"/><text fill="#000000" font-family="sans-serif" font-size="12" lengthAdjust="spacing" textLength="119.8008" x="146.3613" y="545.5313">Worker Queue Tasks</text><rect fill="#F1F1F1" height="34.1328" rx="12.5" ry="12.5" style="stroke:#181818;stroke-width:0.5;" width="76.2441" x="168.1396" y="634.1973"/><text fill="#000000" font-family="sans-serif" font-size="12" lengthAdjust="spacing" textLength="56.2441" x="178.1396" y="655.7988">Pop Layer</text><rect fill="#F1F1F1" height="34.1328" rx="12.5" ry="12.5" style="stroke:#181818;stroke-width:0.5;" width="110.8027" x="150.8604" y="688.3301"/><text fill="#000000" font-family="sans-serif" font-size="12" lengthAdjust="spacing" textLength="90.8027" x="160.8604" y="709.9316">Check Init State</text><rect fill="#F1F1F1" height="34.1328" rx="12.5" ry="12.5" style="stroke:#181818;stroke-width:0.5;" width="132.7402" x="139.8916" y="805.9404"/><text fill="#000000" font-family="sans-serif" font-size="12" lengthAdjust="spacing" textLength="112.7402" x="149.8916" y="827.542">Run '&lt;engine&gt; init'</text><polygon fill="#F1F1F1" points="179.9031,757.4629,232.6204,757.4629,244.6204,769.4629,232.6204,781.4629,179.9031,781.4629,167.9031,769.4629,179.9031,757.4629" style="stroke:#181818;stroke-width:0.5;stroke-linejoin:miter;stroke-miterlimit:10;"/><text fill="#000000" font-family="sans-serif" font-size="11" lengthAdjust="spacing" textLength="17.4829" x="210.2617" y="792.0977">yes</text><text fill="#000000" font-family="sans-serif" font-size="11" lengthAdjust="spacing" textLength="52.7173" x="179.9031" y="773.6201">Need Init?</text><polygon fill="#F1F1F1" points="206.2617,864.5508,218.2617,876.5508,206.2617,888.5508,194.2617,876.5508,206.2617,864.5508" style="stroke:#181818;stroke-width:0.5;stroke-linejoin:miter;stroke-miterlimit:10;"/><rect fill="#F1F1F1" height="34.1328" rx="12.5" ry="12.5" style="stroke:#181818;stroke-width:0.5;" width="324.5234" x="44" y="908.5508"/><text fill="#000000" font-family="sans-serif" font-size="12" lengthAdjust="spacing" textLength="304.5234" x="54" y="930.1523">Run '&lt;engine&gt; plan -detailed-exitcode -lock=false'</text><rect fill="#F1F1F1" height="34.1328" rx="12.5" ry="12.5" style="stroke:#181818;stroke-width:0.5;" width="179.375" x="116.5742" y="1011.1611"/><text fill="#000000" font-family="sans-serif" font-size="12" lengthAdjust="spacing" textLength="159.375" x="126.5742" y="1032.7627">Run '&lt;engine&gt; show -json'</text><rect fill="#F1F1F1" height="34.1328" rx="12.5" ry="12.5" style="stroke:#181818;stroke-width:0.5;" width="174.125" x="119.1992" y="1080.2939"/><text fill="#000000" font-family="sans-serif" font-size="12" lengthAdjust="spacing" textLength="154.125" x="129.1992" y="1101.8955">Parse and Apply rules.json</text><polygon fill="#F1F1F1" points="124.0276,962.6836,288.4958,962.6836,300.4958,974.6836,288.4958,986.6836,124.0276,986.6836,112.0276,974.6836,124.0276,962.6836" style="stroke:#181818;stroke-width:0.5;stroke-linejoin:miter;stroke-miterlimit:10;"/><text fill="#000000" font-family="sans-serif" font-size="11" lengthAdjust="spacing" textLength="17.4829" x="210.2617" y="997.3184">yes</text><text fill="#000000" font-family="sans-serif" font-size="11" lengthAdjust="spacing" textLength="164.4683" x="124.0276" y="978.8408">Detailed Exit Code == 2 (Drift)</text><polygon fill="#F1F1F1" points="206.2617,1134.4268,218.2617,1146.4268,206.2617,1158.4268,194.2617,1146.4268,206.2617,1134.4268" style="stroke:#181818;stroke-width:0.5;stroke-linejoin:miter;stroke-miterlimit:10;"/><rect fill="#F1F1F1" height="34.1328" rx="12.5" ry="12.5" style="stroke:#181818;stroke-width:0.5;" width="230.2461" x="91.1387" y="1178.4268"/><text fill="#000000" font-family="sans-serif" font-size="12" lengthAdjust="spacing" textLength="210.2461" x="101.1387" y="1200.0283">Send Result to TUI Loop via p.Send()</text><polygon fill="#F1F1F1" points="149.645,578.0625,262.8784,578.0625,274.8784,590.0625,262.8784,602.0625,149.645,602.0625,137.645,590.0625,149.645,578.0625" style="stroke:#181818;stroke-width:0.5;stroke-linejoin:miter;stroke-miterlimit:10;"/><text fill="#000000" font-family="sans-serif" font-size="11" lengthAdjust="spacing" textLength="17.4829" x="210.2617" y="612.6973">yes</text><text fill="#000000" font-family="sans-serif" font-size="11" lengthAdjust="spacing" textLength="113.2334" x="149.645" y="594.2197">Has Layers in Queue?</text><rect fill="#F1F1F1" height="34.1328" rx="12.5" ry="12.5" style="stroke:#181818;stroke-width:0.5;" width="139.9531" x="504.2246" y="724.3301"/><text fill="#000000" font-family="sans-serif" font-size="12" lengthAdjust="spacing" textLength="119.9531" x="514.2246" y="745.9316">Bubble Tea TUI Loop</text><rect fill="#F1F1F1" height="34.1328" rx="12.5" ry="12.5" style="stroke:#181818;stroke-width:0.5;" width="241.6895" x="453.3564" y="854.418"/><text fill="#000000" font-family="sans-serif" font-size="12" lengthAdjust="spacing" textLength="221.6895" x="463.3564" y="876.0195">Render Live Progress / Active Workers</text><rect fill="#F1F1F1" height="34.1328" rx="12.5" ry="12.5" style="stroke:#181818;stroke-width:0.5;" width="244.5195" x="451.9414" y="908.5508"/><text fill="#000000" font-family="sans-serif" font-size="12" lengthAdjust="spacing" textLength="224.5195" x="461.9414" y="930.1523">Render Interactive List &amp; Detailed View</text><rect fill="#F1F1F1" height="34.1328" rx="12.5" ry="12.5" style="stroke:#181818;stroke-width:0.5;" width="283.3555" x="432.5234" y="962.6836"/><text fill="#000000" font-family="sans-serif" font-size="12" lengthAdjust="spacing" textLength="263.3555" x="442.5234" y="984.2852">Handle Keyboard Input (Scroll, Filter, Inspect)</text><polygon fill="#F1F1F1" points="549.7305,793.4629,598.6719,793.4629,610.6719,805.4629,598.6719,817.4629,549.7305,817.4629,537.7305,805.4629,549.7305,793.4629" style="stroke:#181818;stroke-width:0.5;stroke-linejoin:miter;stroke-miterlimit:10;"/><text fill="#000000" font-family="sans-serif" font-size="11" lengthAdjust="spacing" textLength="17.4829" x="578.2012" y="828.0977">yes</text><text fill="#000000" font-family="sans-serif" font-size="11" lengthAdjust="spacing" textLength="48.9414" x="549.7305" y="809.6201">Running?</text><text fill="#000000" font-family="sans-serif" font-size="11" lengthAdjust="spacing" textLength="13.5835" x="524.147" y="803.1426">no</text><rect fill="#555555" height="6" rx="2.5" ry="2.5" style="stroke:#555555;stroke-width:1;" width="725.8789" x="16" y="1254.5596"/><rect fill="#F1F1F1" height="34.1328" rx="12.5" ry="12.5" style="stroke:#181818;stroke-width:0.5;" width="162.2773" x="292.8008" y="1280.5596"/><text fill="#000000" font-family="sans-serif" font-size="12" lengthAdjust="spacing" textLength="142.2773" x="302.8008" y="1302.1611">Print Final Report or Exit</text><ellipse cx="373.9395" cy="1345.6924" fill="none" rx="11" ry="11" style="stroke:#222222;stroke-width:1;"/><ellipse cx="373.9395" cy="1345.6924" fill="#222222" rx="6" ry="6" style="stroke:#222222;stroke-width:1;"/><line style="stroke:#181818;stroke-width:1;" x1="373.9395" x2="373.9395" y1="35" y2="55"/><polygon fill="#181818" points="369.9395,45,373.9395,55,377.9395,45,373.9395,49" style="stroke:#181818;stroke-width:1;stroke-linejoin:miter;stroke-miterlimit:10;"/><line style="stroke:#181818;stroke-width:1;" x1="373.9395" x2="373.9395" y1="89.1328" y2="109.1328"/><polygon fill="#181818" points="369.9395,99.1328,373.9395,109.1328,377.9395,99.1328,373.9395,103.1328" style="stroke:#181818;stroke-width:1;stroke-linejoin:miter;stroke-miterlimit:10;"/><line style="stroke:#181818;stroke-width:1;" x1="373.9395" x2="373.9395" y1="143.2656" y2="163.2656"/><polygon fill="#181818" points="369.9395,153.2656,373.9395,163.2656,377.9395,153.2656,373.9395,157.2656" style="stroke:#181818;stroke-width:1;stroke-linejoin:miter;stroke-miterlimit:10;"/><line style="stroke:#181818;stroke-width:1;" x1="373.9395" x2="373.9395" y1="197.3984" y2="217.3984"/><polygon fill="#181818" points="369.9395,207.3984,373.9395,217.3984,377.9395,207.3984,373.9395,211.3984" style="stroke:#181818;stroke-width:1;stroke-linejoin:miter;stroke-miterlimit:10;"/><line style="stroke:#181818;stroke-width:1;" x1="294.0273" x2="294.0273" y1="339.6641" y2="359.6641"/><polygon fill="#181818" points="290.0273,349.6641,294.0273,359.6641,298.0273,349.6641,294.0273,353.6641" style="stroke:#181818;stroke-width:1;stroke-linejoin:miter;stroke-miterlimit:10;"/><line style="stroke:#181818;stroke-width:1;" x1="331.8372" x2="294.0273" y1="283.5313" y2="283.5313"/><line style="stroke:#181818;stroke-width:1;" x1="294.0273" x2="294.0273" y1="283.5313" y2="305.5313"/><polygon fill="#181818" points="290.0273,295.5313,294.0273,305.5313,298.0273,295.5313,294.0273,299.5313" style="stroke:#181818;stroke-width:1;stroke-linejoin:miter;stroke-miterlimit:10;"/><line style="stroke:#181818;stroke-width:1;" x1="416.0417" x2="453.8516" y1="283.5313" y2="283.5313"/><line style="stroke:#181818;stroke-width:1;" x1="453.8516" x2="453.8516" y1="283.5313" y2="305.5313"/><polygon fill="#181818" points="449.8516,295.5313,453.8516,305.5313,457.8516,295.5313,453.8516,299.5313" style="stroke:#181818;stroke-width:1;stroke-linejoin:miter;stroke-miterlimit:10;"/><line style="stroke:#181818;stroke-width:1;" x1="294.0273" x2="294.0273" y1="393.7969" y2="411.7969"/><line style="stroke:#181818;stroke-width:1;" x1="294.0273" x2="361.9395" y1="411.7969" y2="411.7969"/><polygon fill="#181818" points="351.9395,407.7969,361.9395,411.7969,351.9395,415.7969,355.9395,411.7969" style="stroke:#181818;stroke-width:1;stroke-linejoin:miter;stroke-miterlimit:10;"/><line style="stroke:#181818;stroke-width:1;" x1="453.8516" x2="453.8516" y1="339.6641" y2="411.7969"/><line style="stroke:#181818;stroke-width:1;" x1="453.8516" x2="385.9395" y1="411.7969" y2="411.7969"/><polygon fill="#181818" points="395.9395,407.7969,385.9395,411.7969,395.9395,415.7969,391.9395,411.7969" style="stroke:#181818;stroke-width:1;stroke-linejoin:miter;stroke-miterlimit:10;"/><line style="stroke:#181818;stroke-width:1;" x1="373.9395" x2="373.9395" y1="251.5313" y2="271.5313"/><polygon fill="#181818" points="369.9395,261.5313,373.9395,271.5313,377.9395,261.5313,373.9395,265.5313" style="stroke:#181818;stroke-width:1;stroke-linejoin:miter;stroke-miterlimit:10;"/><line style="stroke:#181818;stroke-width:1;" x1="373.9395" x2="373.9395" y1="423.7969" y2="443.7969"/><polygon fill="#181818" points="369.9395,433.7969,373.9395,443.7969,377.9395,433.7969,373.9395,437.7969" style="stroke:#181818;stroke-width:1;stroke-linejoin:miter;stroke-miterlimit:10;"/><line style="stroke:#181818;stroke-width:1;" x1="206.2617" x2="206.2617" y1="668.3301" y2="688.3301"/><polygon fill="#181818" points="202.2617,678.3301,206.2617,688.3301,210.2617,678.3301,206.2617,682.3301" style="stroke:#181818;stroke-width:1;stroke-linejoin:miter;stroke-miterlimit:10;"/><line style="stroke:#181818;stroke-width:1;" x1="206.2617" x2="206.2617" y1="781.4629" y2="805.9404"/><polygon fill="#181818" points="202.2617,795.9404,206.2617,805.9404,210.2617,795.9404,206.2617,799.9404" style="stroke:#181818;stroke-width:1;stroke-linejoin:miter;stroke-miterlimit:10;"/><line style="stroke:#181818;stroke-width:1;" x1="244.6204" x2="282.6318" y1="769.4629" y2="769.4629"/><polygon fill="#181818" points="278.6318,813.0068,282.6318,823.0068,286.6318,813.0068,282.6318,817.0068" style="stroke:#181818;stroke-width:1;stroke-linejoin:miter;stroke-miterlimit:10;"/><line style="stroke:#181818;stroke-width:1;" x1="282.6318" x2="282.6318" y1="769.4629" y2="876.5508"/><line style="stroke:#181818;stroke-width:1;" x1="282.6318" x2="218.2617" y1="876.5508" y2="876.5508"/><polygon fill="#181818" points="228.2617,872.5508,218.2617,876.5508,228.2617,880.5508,224.2617,876.5508" style="stroke:#181818;stroke-width:1;stroke-linejoin:miter;stroke-miterlimit:10;"/><line style="stroke:#181818;stroke-width:1;" x1="206.2617" x2="206.2617" y1="840.0732" y2="864.5508"/><polygon fill="#181818" points="202.2617,854.5508,206.2617,864.5508,210.2617,854.5508,206.2617,858.5508" style="stroke:#181818;stroke-width:1;stroke-linejoin:miter;stroke-miterlimit:10;"/><line style="stroke:#181818;stroke-width:1;" x1="206.2617" x2="206.2617" y1="722.4629" y2="757.4629"/><polygon fill="#181818" points="202.2617,747.4629,206.2617,757.4629,210.2617,747.4629,206.2617,751.4629" style="stroke:#181818;stroke-width:1;stroke-linejoin:miter;stroke-miterlimit:10;"/><line style="stroke:#181818;stroke-width:1;" x1="206.2617" x2="206.2617" y1="888.5508" y2="908.5508"/><polygon fill="#181818" points="202.2617,898.5508,206.2617,908.5508,210.2617,898.5508,206.2617,902.5508" style="stroke:#181818;stroke-width:1;stroke-linejoin:miter;stroke-miterlimit:10;"/><line style="stroke:#181818;stroke-width:1;" x1="206.2617" x2="206.2617" y1="1045.2939" y2="1080.2939"/><polygon fill="#181818" points="202.2617,1070.2939,206.2617,1080.2939,210.2617,1070.2939,206.2617,1074.2939" style="stroke:#181818;stroke-width:1;stroke-linejoin:miter;stroke-miterlimit:10;"/><line style="stroke:#181818;stroke-width:1;" x1="206.2617" x2="206.2617" y1="986.6836" y2="1011.1611"/><polygon fill="#181818" points="202.2617,1001.1611,206.2617,1011.1611,210.2617,1001.1611,206.2617,1005.1611" style="stroke:#181818;stroke-width:1;stroke-linejoin:miter;stroke-miterlimit:10;"/><line style="stroke:#181818;stroke-width:1;" x1="300.4958" x2="312.4958" y1="974.6836" y2="974.6836"/><polygon fill="#181818" points="308.4958,1052.7939,312.4958,1062.7939,316.4958,1052.7939,312.4958,1056.7939" style="stroke:#181818;stroke-width:1;stroke-linejoin:miter;stroke-miterlimit:10;"/><line style="stroke:#181818;stroke-width:1;" x1="312.4958" x2="312.4958" y1="974.6836" y2="1146.4268"/><line style="stroke:#181818;stroke-width:1;" x1="312.4958" x2="218.2617" y1="1146.4268" y2="1146.4268"/><polygon fill="#181818" points="228.2617,1142.4268,218.2617,1146.4268,228.2617,1150.4268,224.2617,1146.4268" style="stroke:#181818;stroke-width:1;stroke-linejoin:miter;stroke-miterlimit:10;"/><line style="stroke:#181818;stroke-width:1;" x1="206.2617" x2="206.2617" y1="1114.4268" y2="1134.4268"/><polygon fill="#181818" points="202.2617,1124.4268,206.2617,1134.4268,210.2617,1124.4268,206.2617,1128.4268" style="stroke:#181818;stroke-width:1;stroke-linejoin:miter;stroke-miterlimit:10;"/><line style="stroke:#181818;stroke-width:1;" x1="206.2617" x2="206.2617" y1="942.6836" y2="962.6836"/><polygon fill="#181818" points="202.2617,952.6836,206.2617,962.6836,210.2617,952.6836,206.2617,956.6836" style="stroke:#181818;stroke-width:1;stroke-linejoin:miter;stroke-miterlimit:10;"/><line style="stroke:#181818;stroke-width:1;" x1="206.2617" x2="206.2617" y1="1158.4268" y2="1178.4268"/><polygon fill="#181818" points="202.2617,1168.4268,206.2617,1178.4268,210.2617,1168.4268,206.2617,1172.4268" style="stroke:#181818;stroke-width:1;stroke-linejoin:miter;stroke-miterlimit:10;"/><line style="stroke:#181818;stroke-width:1;" x1="206.2617" x2="206.2617" y1="602.0625" y2="634.1973"/><polygon fill="#181818" points="202.2617,624.1973,206.2617,634.1973,210.2617,624.1973,206.2617,628.1973" style="stroke:#181818;stroke-width:1;stroke-linejoin:miter;stroke-miterlimit:10;"/><line style="stroke:#181818;stroke-width:1;" x1="206.2617" x2="206.2617" y1="1212.5596" y2="1222.5596"/><line style="stroke:#181818;stroke-width:1;" x1="206.2617" x2="380.5234" y1="1222.5596" y2="1222.5596"/><polygon fill="#181818" points="376.5234,917.1396,380.5234,907.1396,384.5234,917.1396,380.5234,913.1396" style="stroke:#181818;stroke-width:1;stroke-linejoin:miter;stroke-miterlimit:10;"/><line style="stroke:#181818;stroke-width:1;" x1="380.5234" x2="380.5234" y1="590.0625" y2="1222.5596"/><line style="stroke:#181818;stroke-width:1;" x1="380.5234" x2="274.8784" y1="590.0625" y2="590.0625"/><polygon fill="#181818" points="284.8784,586.0625,274.8784,590.0625,284.8784,594.0625,280.8784,590.0625" style="stroke:#181818;stroke-width:1;stroke-linejoin:miter;stroke-miterlimit:10;"/><line style="stroke:#181818;stroke-width:1;" x1="137.645" x2="32" y1="590.0625" y2="590.0625"/><polygon fill="#181818" points="28,903.1396,32,913.1396,36,903.1396,32,907.1396" style="stroke:#181818;stroke-width:1;stroke-linejoin:miter;stroke-miterlimit:10;"/><line style="stroke:#181818;stroke-width:1;" x1="32" x2="32" y1="590.0625" y2="1234.5596"/><line style="stroke:#181818;stroke-width:1;" x1="32" x2="206.2617" y1="1234.5596" y2="1234.5596"/><line style="stroke:#181818;stroke-width:1;" x1="206.2617" x2="206.2617" y1="1234.5596" y2="1254.5596"/><polygon fill="#181818" points="202.2617,1244.5596,206.2617,1254.5596,210.2617,1244.5596,206.2617,1248.5596" style="stroke:#181818;stroke-width:1;stroke-linejoin:miter;stroke-miterlimit:10;"/><line style="stroke:#181818;stroke-width:1;" x1="206.2617" x2="206.2617" y1="558.0625" y2="578.0625"/><polygon fill="#181818" points="202.2617,568.0625,206.2617,578.0625,210.2617,568.0625,206.2617,572.0625" style="stroke:#181818;stroke-width:1;stroke-linejoin:miter;stroke-miterlimit:10;"/><line style="stroke:#181818;stroke-width:1;" x1="574.2012" x2="574.2012" y1="888.5508" y2="908.5508"/><polygon fill="#181818" points="570.2012,898.5508,574.2012,908.5508,578.2012,898.5508,574.2012,902.5508" style="stroke:#181818;stroke-width:1;stroke-linejoin:miter;stroke-miterlimit:10;"/><line style="stroke:#181818;stroke-width:1;" x1="574.2012" x2="574.2012" y1="942.6836" y2="962.6836"/><polygon fill="#181818" points="570.2012,952.6836,574.2012,962.6836,578.2012,952.6836,574.2012,956.6836" style="stroke:#181818;stroke-width:1;stroke-linejoin:miter;stroke-miterlimit:10;"/><line style="stroke:#181818;stroke-width:1;" x1="574.2012" x2="574.2012" y1="817.4629" y2="854.418"/><polygon fill="#181818" points="570.2012,844.418,574.2012,854.418,578.2012,844.418,574.2012,848.418" style="stroke:#181818;stroke-width:1;stroke-linejoin:miter;stroke-miterlimit:10;"/><line style="stroke:#181818;stroke-width:1;" x1="574.2012" x2="574.2012" y1="996.8164" y2="1008.8164"/><line style="stroke:#181818;stroke-width:1;" x1="574.2012" x2="727.8789" y1="1008.8164" y2="1008.8164"/><polygon fill="#181818" points="723.8789,917.1396,727.8789,907.1396,731.8789,917.1396,727.8789,913.1396" style="stroke:#181818;stroke-width:1;stroke-linejoin:miter;stroke-miterlimit:10;"/><line style="stroke:#181818;stroke-width:1;" x1="727.8789" x2="727.8789" y1="805.4629" y2="1008.8164"/><line style="stroke:#181818;stroke-width:1;" x1="727.8789" x2="610.6719" y1="805.4629" y2="805.4629"/><polygon fill="#181818" points="620.6719,801.4629,610.6719,805.4629,620.6719,809.4629,616.6719,805.4629" style="stroke:#181818;stroke-width:1;stroke-linejoin:miter;stroke-miterlimit:10;"/><line style="stroke:#181818;stroke-width:1;" x1="537.7305" x2="420.5234" y1="805.4629" y2="805.4629"/><polygon fill="#181818" points="416.5234,903.1396,420.5234,913.1396,424.5234,903.1396,420.5234,907.1396" style="stroke:#181818;stroke-width:1;stroke-linejoin:miter;stroke-miterlimit:10;"/><line style="stroke:#181818;stroke-width:1;" x1="420.5234" x2="420.5234" y1="805.4629" y2="1020.8164"/><line style="stroke:#181818;stroke-width:1;" x1="420.5234" x2="574.2012" y1="1020.8164" y2="1020.8164"/><line style="stroke:#181818;stroke-width:1;" x1="574.2012" x2="574.2012" y1="1020.8164" y2="1254.5596"/><polygon fill="#181818" points="570.2012,1244.5596,574.2012,1254.5596,578.2012,1244.5596,574.2012,1248.5596" style="stroke:#181818;stroke-width:1;stroke-linejoin:miter;stroke-miterlimit:10;"/><line style="stroke:#181818;stroke-width:1;" x1="574.2012" x2="574.2012" y1="758.4629" y2="793.4629"/><polygon fill="#181818" points="570.2012,783.4629,574.2012,793.4629,578.2012,783.4629,574.2012,787.4629" style="stroke:#181818;stroke-width:1;stroke-linejoin:miter;stroke-miterlimit:10;"/><line style="stroke:#181818;stroke-width:1;" x1="206.2617" x2="206.2617" y1="503.9297" y2="523.9297"/><polygon fill="#181818" points="202.2617,513.9297,206.2617,523.9297,210.2617,513.9297,206.2617,517.9297" style="stroke:#181818;stroke-width:1;stroke-linejoin:miter;stroke-miterlimit:10;"/><line style="stroke:#181818;stroke-width:1;" x1="574.2012" x2="574.2012" y1="503.9297" y2="724.3301"/><polygon fill="#181818" points="570.2012,714.3301,574.2012,724.3301,578.2012,714.3301,574.2012,718.3301" style="stroke:#181818;stroke-width:1;stroke-linejoin:miter;stroke-miterlimit:10;"/><line style="stroke:#181818;stroke-width:1;" x1="373.9395" x2="373.9395" y1="477.9297" y2="497.9297"/><polygon fill="#181818" points="369.9395,487.9297,373.9395,497.9297,377.9395,487.9297,373.9395,491.9297" style="stroke:#181818;stroke-width:1;stroke-linejoin:miter;stroke-miterlimit:10;"/><line style="stroke:#181818;stroke-width:1;" x1="373.9395" x2="373.9395" y1="1260.5596" y2="1280.5596"/><polygon fill="#181818" points="369.9395,1270.5596,373.9395,1280.5596,377.9395,1270.5596,373.9395,1274.5596" style="stroke:#181818;stroke-width:1;stroke-linejoin:miter;stroke-miterlimit:10;"/><line style="stroke:#181818;stroke-width:1;" x1="373.9395" x2="373.9395" y1="1314.6924" y2="1334.6924"/><polygon fill="#181818" points="369.9395,1324.6924,373.9395,1334.6924,377.9395,1324.6924,373.9395,1328.6924" style="stroke:#181818;stroke-width:1;stroke-linejoin:miter;stroke-miterlimit:10;"/><?plantuml-src XLHDRzD04BtxLyo9EgWf4aURW49BrOgg2ac0ysOzTWPlTgpzI6hK7y-i7K9BaRWawvqtis_Ul5tVaksKKplOADqsZgEjBjcmW-2KzH926p9_GbLOgsZ26X_2t51ZTn86BJ_eiim7vK9MB9Jp29UysobRmHrPXBbhOeBwCYjMMbbOAzTWW2jog0Ex7fQee_EqHzENcUM0uAZPXWAkoLOUQZOLEWy72bjuVH5ggCcWpufhCd8stAa-XJSzJD7kps5gqeRyazKcLYWhV1XMmc29diqU4xH9x78L0pzA6QTgThj7xeGgrt5IPbH3VfkwKpe8kGyJ25kqaFVe9nb0iTho0VGMTRlX1-X8j-ZA8P2wz6YaFQnWO2FDen5bSikJ4wGU-3-5s8hghBYr54WP-edmdPrKXGMpWLop5Q5aAhg76TmBHQ7Sfd97s9U84KLVt_f4vB0LdI2_KVwtHcH7ZFH2_jI955XmDsBAyViojGM92Ao22ZXk9qNkKGYdmDzw37dBQE7itQZjUpcEmjcOEhRs3qndH8bfXK49sKecHK5p9GCohDjPhKIrip-dNnrny4bmuZC1pcRmLWAEwZ3vFoMVXZRzuTaUgwRc1zCcmywxplJWejZh8c5US5_9MlpgvHv0O5X_lOKx5ktsfA2xID5yaf9aCQW_J0XKeyYcENsCcusCP8tgbFfaKCBKacrU36SfrPBFnOImSDmuz1xUm7omvT4Yldo6VU9RoVC1Ni59kc-4XoFwHfgMapzZls7bqbox621VQSV6dCDumSvbstTYvcUTZLPESWmcB1QEv3cG6wkC2DIn2o0lIHfJAOy3Txy0?></g></svg>