<svg xmlns="http://www.w3.org/2000/svg" xmlns:xlink="http://www.w3.org/1999/xlink" contentStyleType="text/css" data-diagram-type="ACTIVITY" height="469px" preserveAspectRatio="none" style="width:671px;height:469px;" version="1.1" viewBox="0 0 671 469" width="671px" zoomAndPan="magnify"><?plantuml 1.2026.5?><defs/><g><ellipse cx="256.5347" cy="25" fill="#222222" rx="10" ry="10" style="stroke:#222222;stroke-width:1;"/><rect fill="#F7F9FC" height="48.2656" rx="12.5" ry="12.5" style="stroke:#2F3A4A;stroke-width:0.5;" width="139.8652" x="186.6021" y="55"/><text fill="#111827" font-family="sans-serif" font-size="12" lengthAdjust="spacing" textLength="101.6191" x="196.6021" y="76.6016">Read CLI flag and</text><text fill="#111827" font-family="sans-serif" font-size="12" lengthAdjust="spacing" textLength="119.8652" x="196.6021" y="90.7344">TF_DRIFT_TUI_STYLE</text><polygon fill="#F7F9FC" points="214.7019,123.2656,298.3674,123.2656,310.3674,135.2656,298.3674,147.2656,214.7019,147.2656,202.7019,135.2656,214.7019,123.2656" style="stroke:#2F3A4A;stroke-width:0.5;stroke-linejoin:miter;stroke-miterlimit:10;"/><text fill="#111827" font-family="sans-serif" font-size="11" lengthAdjust="spacing" textLength="83.6655" x="214.7019" y="139.4229">NO_COLOR set?</text><text fill="#000000" font-family="sans-serif" font-size="11" lengthAdjust="spacing" textLength="17.4829" x="185.219" y="132.9453">yes</text><text fill="#000000" font-family="sans-serif" font-size="11" lengthAdjust="spacing" textLength="13.5835" x="310.3674" y="132.9453">no</text><rect fill="#F7F9FC" height="34.1328" rx="12.5" ry="12.5" style="stroke:#2F3A4A;stroke-width:0.5;" width="177.4531" x="16" y="157.2656"/><text fill="#111827" font-family="sans-serif" font-size="12" lengthAdjust="spacing" textLength="157.4531" x="26" y="178.8672">Use minimal no-color style</text><polygon fill="#F7F9FC" points="374.2363,157.2656,442.4492,157.2656,454.4492,169.2656,442.4492,181.2656,374.2363,181.2656,362.2363,169.2656,374.2363,157.2656" style="stroke:#2F3A4A;stroke-width:0.5;stroke-linejoin:miter;stroke-miterlimit:10;"/><text fill="#111827" font-family="sans-serif" font-size="11" lengthAdjust="spacing" textLength="68.2129" x="374.2363" y="173.4229">style known?</text><text fill="#000000" font-family="sans-serif" font-size="11" lengthAdjust="spacing" textLength="17.4829" x="344.7534" y="166.9453">yes</text><text fill="#000000" font-family="sans-serif" font-size="11" lengthAdjust="spacing" textLength="13.5835" x="454.4492" y="166.9453">no</text><rect fill="#F7F9FC" height="34.1328" rx="12.5" ry="12.5" style="stroke:#2F3A4A;stroke-width:0.5;" width="177.6582" x="223.4531" y="191.2656"/><text fill="#111827" font-family="sans-serif" font-size="12" lengthAdjust="spacing" textLength="157.6582" x="233.4531" y="212.8672">Use requested style palette</text><rect fill="#F7F9FC" height="34.1328" rx="12.5" ry="12.5" style="stroke:#2F3A4A;stroke-width:0.5;" width="166.584" x="421.1113" y="191.2656"/><text fill="#111827" font-family="sans-serif" font-size="12" lengthAdjust="spacing" textLength="146.584" x="431.1113" y="212.8672">Fall back to modern style</text><polygon fill="#F7F9FC" points="408.3428,231.3984,420.3428,243.3984,408.3428,255.3984,396.3428,243.3984,408.3428,231.3984" style="stroke:#2F3A4A;stroke-width:0.5;stroke-linejoin:miter;stroke-miterlimit:10;"/><polygon fill="#F7F9FC" points="256.5347,261.3984,268.5347,273.3984,256.5347,285.3984,244.5347,273.3984,256.5347,261.3984" style="stroke:#2F3A4A;stroke-width:0.5;stroke-linejoin:miter;stroke-miterlimit:10;"/><rect fill="#F7F9FC" height="34.1328" rx="12.5" ry="12.5" style="stroke:#2F3A4A;stroke-width:0.5;" width="193.6484" x="159.7104" y="305.3984"/><text fill="#111827" font-family="sans-serif" font-size="12" lengthAdjust="spacing" textLength="173.6484" x="169.7104" y="327">Render semantic status labels</text><path d="M393.0435,363.3535 L393.0435,379.6641 L373.0435,383.6641 L393.0435,387.6641 L393.0435,403.9746 A0,0 0 0 0 393.0435,403.9746 L650.8047,403.9746 A0,0 0 0 0 650.8047,403.9746 L650.8047,373.3535 L640.8047,363.3535 L393.0435,363.3535 A0,0 0 0 0 393.0435,363.3535" fill="#FFF7ED" style="stroke:#9A3412;stroke-width:0.5;"/><path d="M640.8047,363.3535 L640.8047,373.3535 L650.8047,373.3535 L640.8047,363.3535" fill="#FFF7ED" style="stroke:#9A3412;stroke-width:0.5;"/><text fill="#111827" font-family="sans-serif" font-size="13" lengthAdjust="spacing" textLength="236.7612" x="399.0435" y="380.9219">Color never carries the only meaning.</text><text fill="#111827" font-family="sans-serif" font-size="13" lengthAdjust="spacing" textLength="236.7612" x="399.0435" y="396.2324">Status labels remain readable as text.</text><rect fill="#F7F9FC" height="48.2656" rx="12.5" ry="12.5" style="stroke:#2F3A4A;stroke-width:0.5;" width="233.0176" x="140.0259" y="359.5313"/><text fill="#111827" font-family="sans-serif" font-size="12" lengthAdjust="spacing" textLength="213.0176" x="150.0259" y="381.1328">Render scan list and selection picker</text><text fill="#111827" font-family="sans-serif" font-size="12" lengthAdjust="spacing" textLength="104.7305" x="150.0259" y="395.2656">with shared styles</text><ellipse cx="256.5347" cy="438.7969" fill="none" rx="11" ry="11" style="stroke:#222222;stroke-width:1;"/><ellipse cx="256.5347" cy="438.7969" fill="#222222" rx="6" ry="6" style="stroke:#222222;stroke-width:1;"/><line style="stroke:#2F3A4A;stroke-width:1;" x1="256.5347" x2="256.5347" y1="35" y2="55"/><polygon fill="#2F3A4A" points="252.5347,45,256.5347,55,260.5347,45,256.5347,49" style="stroke:#2F3A4A;stroke-width:1;stroke-linejoin:miter;stroke-miterlimit:10;"/><line style="stroke:#2F3A4A;stroke-width:1;" x1="362.2363" x2="312.2822" y1="169.2656" y2="169.2656"/><line style="stroke:#2F3A4A;stroke-width:1;" x1="312.2822" x2="312.2822" y1="169.2656" y2="191.2656"/><polygon fill="#2F3A4A" points="308.2822,181.2656,312.2822,191.2656,316.2822,181.2656,312.2822,185.2656" style="stroke:#2F3A4A;stroke-width:1;stroke-linejoin:miter;stroke-miterlimit:10;"/><line style="stroke:#2F3A4A;stroke-width:1;" x1="454.4492" x2="504.4033" y1="169.2656" y2="169.2656"/><line style="stroke:#2F3A4A;stroke-width:1;" x1="504.4033" x2="504.4033" y1="169.2656" y2="191.2656"/><polygon fill="#2F3A4A" points="500.4033,181.2656,504.4033,191.2656,508.4033,181.2656,504.4033,185.2656" style="stroke:#2F3A4A;stroke-width:1;stroke-linejoin:miter;stroke-miterlimit:10;"/><line style="stroke:#2F3A4A;stroke-width:1;" x1="312.2822" x2="312.2822" y1="225.3984" y2="243.3984"/><line style="stroke:#2F3A4A;stroke-width:1;" x1="312.2822" x2="396.3428" y1="243.3984" y2="243.3984"/><polygon fill="#2F3A4A" points="386.3428,239.3984,396.3428,243.3984,386.3428,247.3984,390.3428,243.3984" style="stroke:#2F3A4A;stroke-width:1;stroke-linejoin:miter;stroke-miterlimit:10;"/><line style="stroke:#2F3A4A;stroke-width:1;" x1="504.4033" x2="504.4033" y1="225.3984" y2="243.3984"/><line style="stroke:#2F3A4A;stroke-width:1;" x1="504.4033" x2="420.3428" y1="243.3984" y2="243.3984"/><polygon fill="#2F3A4A" points="430.3428,239.3984,420.3428,243.3984,430.3428,247.3984,426.3428,243.3984" style="stroke:#2F3A4A;stroke-width:1;stroke-linejoin:miter;stroke-miterlimit:10;"/><line style="stroke:#2F3A4A;stroke-width:1;" x1="202.7019" x2="104.7266" y1="135.2656" y2="135.2656"/><line style="stroke:#2F3A4A;stroke-width:1;" x1="104.7266" x2="104.7266" y1="135.2656" y2="157.2656"/><polygon fill="#2F3A4A" points="100.7266,147.2656,104.7266,157.2656,108.7266,147.2656,104.7266,151.2656" style="stroke:#2F3A4A;stroke-width:1;stroke-linejoin:miter;stroke-miterlimit:10;"/><line style="stroke:#2F3A4A;stroke-width:1;" x1="310.3674" x2="408.3428" y1="135.2656" y2="135.2656"/><line style="stroke:#2F3A4A;stroke-width:1;" x1="408.3428" x2="408.3428" y1="135.2656" y2="157.2656"/><polygon fill="#2F3A4A" points="404.3428,147.2656,408.3428,157.2656,412.3428,147.2656,408.3428,151.2656" style="stroke:#2F3A4A;stroke-width:1;stroke-linejoin:miter;stroke-miterlimit:10;"/><line style="stroke:#2F3A4A;stroke-width:1;" x1="104.7266" x2="104.7266" y1="191.3984" y2="273.3984"/><line style="stroke:#2F3A4A;stroke-width:1;" x1="104.7266" x2="244.5347" y1="273.3984" y2="273.3984"/><polygon fill="#2F3A4A" points="234.5347,269.3984,244.5347,273.3984,234.5347,277.3984,238.5347,273.3984" style="stroke:#2F3A4A;stroke-width:1;stroke-linejoin:miter;stroke-miterlimit:10;"/><line style="stroke:#2F3A4A;stroke-width:1;" x1="408.3428" x2="408.3428" y1="255.3984" y2="273.3984"/><line style="stroke:#2F3A4A;stroke-width:1;" x1="408.3428" x2="268.5347" y1="273.3984" y2="273.3984"/><polygon fill="#2F3A4A" points="278.5347,269.3984,268.5347,273.3984,278.5347,277.3984,274.5347,273.3984" style="stroke:#2F3A4A;stroke-width:1;stroke-linejoin:miter;stroke-miterlimit:10;"/><line style="stroke:#2F3A4A;stroke-width:1;" x1="256.5347" x2="256.5347" y1="103.2656" y2="123.2656"/><polygon fill="#2F3A4A" points="252.5347,113.2656,256.5347,123.2656,260.5347,113.2656,256.5347,117.2656" style="stroke:#2F3A4A;stroke-width:1;stroke-linejoin:miter;stroke-miterlimit:10;"/><line style="stroke:#2F3A4A;stroke-width:1;" x1="256.5347" x2="256.5347" y1="285.3984" y2="305.3984"/><polygon fill="#2F3A4A" points="252.5347,295.3984,256.5347,305.3984,260.5347,295.3984,256.5347,299.3984" style="stroke:#2F3A4A;stroke-width:1;stroke-linejoin:miter;stroke-miterlimit:10;"/><line style="stroke:#2F3A4A;stroke-width:1;" x1="256.5347" x2="256.5347" y1="339.5313" y2="359.5313"/><polygon fill="#2F3A4A" points="252.5347,349.5313,256.5347,359.5313,260.5347,349.5313,256.5347,353.5313" style="stroke:#2F3A4A;stroke-width:1;stroke-linejoin:miter;stroke-miterlimit:10;"/><line style="stroke:#2F3A4A;stroke-width:1;" x1="256.5347" x2="256.5347" y1="407.7969" y2="427.7969"/><polygon fill="#2F3A4A" points="252.5347,417.7969,256.5347,427.7969,260.5347,417.7969,256.5347,421.7969" style="stroke:#2F3A4A;stroke-width:1;stroke-linejoin:miter;stroke-miterlimit:10;"/><?plantuml-src TLB1Ja8n4BptApRn0WTDG19K3WQH9YG44iI39xAyjq13tnRRHIJ6VtVV0nL9lBJ9pkpCRgTfxNY34GkOOxPUnh3bl1TyY20HEIb4B2Rzi79QuDQB3ImZB0YIaYuJHRSu8M4cxit97ZuCmCEPxeLjsrlRAv4GSuh7QjDUTrjThPRInrgZqRXfjitdYNGtnh3xs_8BSX3wnzFQTl_ntFEsUzrgDF_nD4amYhcR4ERG6mvWuN49oBcPsjdZP62di-dpOFOqVHdsEyOje3OQpthZuNW2YUI-3h8YXjgUKbqTxfuJGU7O5UXrpikiSakozzGnv1MiSIY9fL1LXZM77P_h79KYlMuf2UK72TYW9n6L0ZWLKxP5xwjiGG8KGPVdRrlbSgx17KvTb1NLuGjaSPcoKBO9FCvLilEBPyZWNPBoBPJjITCE31kNhIcQdPCLf9N-c-Disbhb4jro9URmoanlgfHXZ8vIkI04zdie2DdnyieydLhhiWKwrWjpdEkog2tqBbVbu5Nc6bNOV040?></g></svg>